/* XPM */
static char *f5bd4c9bb19a494bc31cf6a45d5cac6bXBD7LFGcCvowJV5B[] = {
/* columns rows colors chars-per-pixel */
"50 50 64 1 ",
"  c black",
". c black",
"X c black",
"o c black",
"O c #050200",
"+ c #090301",
"@ c #0A0401",
"# c #0A0401",
"$ c #210C02",
"% c #301203",
"& c #371503",
"* c #582105",
"= c #742C07",
"- c None",
"; c black",
": c #0A0401",
"> c #3A1603",
", c #3B1604",
"< c #3C1704",
"1 c #3B1704",
"2 c #391603",
"3 c #381503",
"4 c #7E3008",
"5 c #813108",
"6 c #803108",
"7 c #7B2F07",
"8 c #7A2F07",
"9 c #7A2E07",
"0 c #B8460B",
"q c #B7460B",
"w c #B1430B",
"e c #B3440B",
"r c #B5450B",
"t c #B6450B",
"y c #C44A0C",
"u c #B2440B",
"i c #9F3D0A",
"p c #A23E0A",
"a c #C54B0C",
"s c #CE4E0C",
"d c #CF4F0C",
"f c #CD4E0C",
"g c #873308",
"h c #622506",
"j c #6A2806",
"k c #913709",
"l c #BB470B",
"z c #D2500D",
"x c #321303",
"c c #3D1704",
"v c #732C07",
"b c #AE420A",
"n c #CA4D0C",
"m c #C94C0C",
"M c #471B04",
"N c #792E07",
"B c #B0430B",
"V c #C94D0C",
"C c #C84C0C",
"Z c #983A09",
"A c #B9460B",
"S c #CB4D0C",
"D c #C34A0C",
"F c white",
/* pixels */
"  .Xo;;;;;;;;;;;;;;;;;;;;;;;;;;;;;;;;;;;;;;;;oX.  ",
" O+@#::::::::::::::::::::::::::::::::::::::::#@+O ",
".+$%&>,<1>233333333333333333333333333332>1<,>&%$+.",
"X@%*=4556478988888888888888888888888898746554=*%@X",
"o#&=-0qwwerttttttttttttttttttttttttttttrewwq0-=&#o",
";:>40yuipeasdffffffffffffffffffffffffdsaepiuy04>:;",
";:,5qughjkldzdssssssssssssssssssssssdzdlkjhguq5,:;",
";:<5wihxcvbndnmmmmmmmmmmmmmmmmmmmmmmndnbvcxhiw5<:;",
";:16wpjcMNBnsVCCCCCCCCCCCCCCCCCCCCCCVsnBNMcjpw61:;",
";:>4eekvNZAmSmCCCCCCCCCCCCCCCCCCCCCCmSmAZNvkee4>:;",
";:27ralbBADCmCCCCCCCCCCCCCCCCCCCCCCCCmCDABblar72:;",
";:38tsdnnmCCCCCCCCCCCCCCCCCCCCCCCCCCCCCCmnndst83:;",
";:39tdzdsSmCCCCCCCCCCCCCCCCCCCCCCCCCCCCmSsdzdt93:;",
";:38tfdnVmCCCCCCCCCCCCCCCCCCCCCCCCCCCCCCmVndft83:;",
";:38tfsmCCCCCCCCCCCCCCCCCCCCCCCCCCCCCCCCCCmsft83:;",
";:38tfsmCCCCCCCCCCCCCCCCCCCCCCCCCCCCCCCCCCmsft83:;",
";:38tfsmCCCCCCCCCCCCCCCCCCCCCCCCCCCCCCCCCCmsft83:;",
";:38tfsmCCCCCCCCCCCCCCCCCCCCCCCCCCCCCCCCCCmsft83:;",
";:38tfsmCCCCCCCCCCCCCCCCCCCCCCCCCCCCCCCCCCmsft83:;",
";:38tfsmCCCCCCCCCCCCCCCCCCCCCCCCCCCCCCCCCCmsft83:;",
";:38tfsmCCCCCCCCCCCCCCCCCCCCCCCCCCCCCCCCCCmsft83:;",
";:38tfsmCCCCCCCCCCCCCCCCCCCCCCCCCCCCCCCCCCmsft83:;",
";:38tfsmCCCCCCCCCCCCCCCCCCCCCCCCCCCCCCCCCCmsft83:;",
";:38tfsmCCCCCCCCCCCCCCCCCCCCCCCCCCCCCCCCCCmsft83:;",
";:38tfsmCCCCCCCCCCCCCCCCCCCCCCCCCCCCCCCCCCmsft83:;",
";:38tfsmCCCCCCCCCCCCCCCCCCCCCCCCCCCCCCCCCCmsft83:;",
";:38tfsmCCCCCCCCCCCCCCCCCCCCCCCCCCCCCCCCCCmsft83:;",
";:38tfsmCCCCCCCCCCCCCCCCCCCCCCCCCCCCCCCCCCmsft83:;",
";:38tfsmCCCCCCCCCCCCCCCCCCCCCCCCCCCCCCCCCCmsft83:;",
";:38tfsmCCCCCCCCCCCCCCCCCCCCCCCCCCCCCCCCCCmsft83:;",
";:38tfsmCCCCCCCCCCCCCCCCCCCCCCCCCCCCCCCCCCmsft83:;",
";:38tfsmCCCCCCCCCCCCCCCCCCCCCCCCCCCCCCCCCCmsft83:;",
";:38tfsmCCCCCCCCCCCCCCCCCCCCCCCCCCCCCCCCCCmsft83:;",
";:38tfsmCCCCCCCCCCCCCCCCCCCCCCCCCCCCCCCCCCmsft83:;",
";:38tfsmCCCCCCCCCCCCCCCCCCCCCCCCCCCCCCCCCCmsft83:;",
";:38tfsmCCCCCCCCCCCCCCCCCCCCCCCCCCCCCCCCCCmsft83:;",
";:38tfdnVmCCCCCCCCCCCCCCCCCCCCCCCCCCCCCCmVndft83:;",
";:39tdzdsSmCCCCCCCCCCCCCCCCCCCCCCCCCCCCmSsdzdt93:;",
";:38tsdnnmCCCCCCCCCCCCCCCCCCCCCCCCCCCCCCmnndst83:;",
";:27ralbBADCmCCCCCCCCCCCCCCCCCCCCCCCCmCDABblar72:;",
";:>4eekvNZAmSmCCCCCCCCCCCCCCCCCCCCCCmSmAZNvkee4>:;",
";:16wpjcMNBnsVCCCCCCCCCCCCCCCCCCCCCCVsnBNMcjpw61:;",
";:<5wihxcvbndnmmmmmmmmmmmmmmmmmmmmmmndnbvcxhiw5<:;",
";:,5qughjkldzdssssssssssssssssssssssdzdlkjhguq5,:;",
";:>40yuipeasdffffffffffffffffffffffffdsaepiuy04>:;",
"o#&=-0qwwerttttttttttttttttttttttttttttrewwq0-=&#o",
"X@%*=4556478988888888888888888888888898746554=*%@X",
".+$%&>,<1>233333333333333333333333333332>1<,>&%$+.",
" O+@#::::::::::::::::::::::::::::::::::::::::#@+O ",
"  .Xo;;;;;;;;;;;;;;;;;;;;;;;;;;;;;;;;;;;;;;;;oX.  "
};
