/* XPM */
static char *_f4b2267c4714fa08e8dcea9008833a2JpysFtiDTJdA3AOA[] = {
/* columns rows colors chars-per-pixel */
"50 50 149 2 ",
"   c #030202",
".  c #090605",
"X  c #0E0907",
"o  c #130A06",
"O  c #140C09",
"+  c #1A0F0A",
"@  c #1D120E",
"#  c #26140D",
"$  c #2D150B",
"%  c #2C180E",
"&  c #31170C",
"*  c #2E1F16",
"=  c #2F1F18",
"-  c #311E15",
";  c #3C1F12",
":  c #2E2016",
">  c #2D2018",
",  c #332116",
"<  c #3B2215",
"1  c #322218",
"2  c #3B2318",
"3  c #432617",
"4  c #4D2817",
"5  c #432619",
"6  c #4E2A19",
"7  c #5A2C17",
"8  c #522B1A",
"9  c #5A2E1A",
"0  c #54301F",
"q  c #5D341F",
"w  c #612F1B",
"e  c #64331D",
"r  c #6E351E",
"t  c #6C381E",
"y  c #75391E",
"u  c #7F3D1F",
"i  c #653720",
"p  c #6E3E29",
"a  c #753D23",
"s  c #7C3E21",
"d  c #7B4021",
"f  c #7F4126",
"g  c #7E4125",
"h  c #803D1F",
"j  c #823D1F",
"k  c #803E1F",
"l  c #803F1F",
"z  c #813D20",
"x  c #823D20",
"c  c #833D20",
"v  c #833D21",
"b  c #803E20",
"n  c #813E21",
"m  c #823E20",
"M  c #833E20",
"N  c #823E21",
"B  c #833E21",
"V  c #823F22",
"C  c #833E21",
"Z  c #834020",
"A  c #824021",
"S  c #824121",
"D  c #834022",
"F  c #824023",
"G  c #834023",
"H  c #854020",
"J  c #854021",
"K  c #854121",
"L  c #864021",
"P  c #864121",
"I  c #854022",
"U  c #854122",
"Y  c #844023",
"T  c #844123",
"R  c #854123",
"E  c #864122",
"W  c #864123",
"Q  c #854222",
"!  c #864223",
"~  c #874223",
"^  c #814024",
"/  c #824024",
"(  c #834024",
")  c #864124",
"_  c #864224",
"`  c #874224",
"'  c #874225",
"]  c #824225",
"[  c #8F4525",
"{  c #8E4525",
"}  c #874528",
"|  c #904524",
" . c #904525",
".. c #914624",
"X. c #924626",
"o. c #934626",
"O. c #924726",
"+. c #934726",
"@. c #924727",
"#. c #934727",
"$. c #924626",
"%. c #954825",
"&. c #944826",
"*. c #954826",
"=. c #944926",
"-. c #954926",
";. c #944827",
":. c #954827",
">. c #944927",
",. c #954927",
"<. c #964826",
"1. c #964926",
"2. c #974926",
"3. c #964827",
"4. c #964927",
"5. c #954927",
"6. c #924828",
"7. c #924A2A",
"8. c #944828",
"9. c #954828",
"0. c #954928",
"q. c #954829",
"w. c #954929",
"e. c #964828",
"r. c #964829",
"t. c #964929",
"y. c #944928",
"u. c #A14F2A",
"i. c #A1502A",
"p. c #A7512B",
"a. c #A7522B",
"s. c #A7512C",
"d. c #A6522C",
"f. c #A7522C",
"g. c #A8512B",
"h. c #A8522B",
"j. c #A8512C",
"k. c #A8512D",
"l. c #A8522D",
"z. c #A8542E",
"x. c #AB542E",
"c. c #AB552E",
"v. c #AA542F",
"b. c #AB542F",
"n. c #AA552F",
"m. c #AB552F",
"M. c #AC542E",
"N. c #AB5430",
"B. c #AB5530",
/* pixels */
"    @ @ @ @ @ @ @ @ @ @ @ @ @ @ @ @ @ @ @ @ # X       + @ # @ @ @ @ @ @ @ @ @ @ @ @ @ @ @ @ @ @ X   ",
"  p M.c.c.c.c.N.c.c.c.N.N.c.c.c.c.c.c.c.c.c.c.f o . 3 z.c.c.c.c.c.c.c.c.N.N.c.c.c.c.c.c.c.c.N.c.6.+ ",
"  V :.:.:.:.:.:.:.:.:.:.:.:.:.:.:.:.:.:.:.e.:.s 6 1 s @.:.:.:.:.:.:.:.:.:.:.:.:.:.:.:.:.:.:.:.:.k ; ",
". / :.:.:.:.:.:.:.:.:.:.:.:.:.:.:.:.:.:.:.:.:.V 6 = s @.:.:.:.:.:.:.:.:.:.:.:.:.:.:.:.:.:.:.:.:.V ; ",
". G :.:.:.:.:.:.:.:.:.:.:.:.:.:.:.:.:.:.:.:.:.u 6 = s @.:.:.:.:.:.:.:.:.:.:.:.:.:.:.:.:.:.:.:.:.V ; ",
". / :.:.:.:.:.:.:.:.:.:.:.:.:.:.:.:.:.:.:.:.:.u 6 - s @.:.:.:.:.:.:.:.:.:.:.:.:.:.:.:.:.:.:.:.:.V ; ",
". G :.:.:.:.:.:.:.:.:.:.:.:.:.:.:.:.:.:.:.:.:.V 6 - s @.:.:.:.:.:.:.:.:.:.:.:.:.:.:.:.:.:.:.:.:.V ; ",
". Y :.:.:.:.:.:.:.:.:.:.:.:.:.:.:.:.:.:.:.:.:.V 6 - s @.:.:.:.:.:.:.:.:.:.:.:.:.:.:.:.:.:.:.:.:.V ; ",
". G :.:.:.:.:.:.:.:.:.:.:.:.:.:.:.:.:.:.:.:.:.V 6 - s @.:.:.:.:.:.:.:.:.:.:.:.:.:.:.:.:.:.:.:.:.V ; ",
". G :.:.:.:.:.:.:.:.:.:.:.:.:.:.:.:.:.:.:.:.:.V 6 - s @.:.:.:.:.:.:.:.:.:.:.:.:.:.:.:.:.:.:.:.:.V ; ",
". G :.:.:.:.:.:.:.:.:.:.:.:.:.:.:.:.:.:.:.:.:.V 6 - s @.:.:.:.:.:.:.:.:.:.:.:.:.:.:.:.:.:.:.:.:.V ; ",
". G :.:.:.:.:.:.:.:.:.:.:.:.:.:.:.:.:.:.:.:.:.c 6 - s @.:.:.:.:.:.:.:.:.:.:.:.:.:.:.:.:.:.:.:.:.V ; ",
". G :.:.:.:.:.:.:.:.:.:.:.:.:.:.:.:.:.:.:.:.:.V 8 - d @.:.:.:.:.:.:.:.:.:.:.:.:.:.:.:.:.:.:.:.:.V ; ",
". G :.:.:.:.:.:.:.:.:.:.:.:.:.:.:.:.:.:.:.:.:.V 8 - s @.:.:.:.:.:.:.:.:.:.:.:.:.:.:.:.:.:.:.:.:.V ; ",
". a Y ) ) ) Y Y Y Y Y Y Y Y Y Y Y Y ) ) ) ) Y y 6 = y Y ) Y ) ) Y ) Y ) ) ) ) ) ) ) ) ) ) ) ) ) y ; ",
"  o $ $ $ $ $ $ $ $ $ $ $ $ $ $ $ $ $ $ $ $ $ - - : - & $ $ $ $ $ $ $ $ & & & & & & & & & & & & #   ",
"    * : : : : : : : : : : : : : : : : : : : : : : : : = : : : : : : : : : : : : : : : : : : = = O   ",
"  . i i i i e i i i e 5 > : 2 e i i i i i i e e e e i e e i e i i i i 0 = : = q e e i i i i i i <   ",
"  a f.j.f.j.f.j.j.j.j./ 2 , } f.h.h.p.f.f.j.j.j.j.j.f.f.f.f.j.j.f.f.p.:.8 : e i.f.f.f.j.f.f.j.j.6.# ",
"  G e.e.e.e.e.e.e.e.e.u 5 < Y :.e.e.e.e.e.e.e.e.e.e.e.e.e.e.e.e.e.e.:.Y 9 = t { e.e.e.e.e.e.e.e.V ; ",
". G :.:.:.:.:.:.:.:.:.u 5 < Y :.:.:.:.:.:.:.:.:.:.:.:.:.:.:.:.:.:.:.:.Y 9 = t @.:.:.:.:.:.:.:.:.V ; ",
". G :.:.:.:.:.:.:.:.:.u 5 2 Y :.:.:.:.:.:.:.:.:.:.:.:.:.:.:.:.:.:.:.e.Y 9 = t @.:.:.:.:.:.:.:.:.V ; ",
". G :.:.:.:.:.:.:.:.:.u 5 2 Y :.:.:.:.:.:.:.:.:.:.:.:.:.:.:.:.:.:.:.:.Y 9 : r @.:.:.:.:.:.:.:.:.V ; ",
". / :.:.:.:.:.:.:.:.:.k 3 2 Y :.:.:.:.:.:.:.:.:.:.:.:.:.:.:.:.:.:.:.:.Y 9 : r @.:.:.:.:.:.:.:.:.V ; ",
". G :.:.:.:.:.:.:.:.:.u 3 2 Y :.:.:.:.:.:.:.:.:.:.:.:.:.:.:.:.:.:.:.:.Y 9 = t @.:.:.:.:.:.:.:.:.V ; ",
". G :.:.:.:.:.:.:.:.:.k 5 2 Y :.:.:.:.:.:.:.:.:.:.:.:.:.:.:.:.:.:.:.:.Y 9 - t @.:.:.:.:.:.:.:.:.V ; ",
". G :.:.:.:.:.:.:.:.:.V 5 2 Y :.:.:.:.:.:.:.:.:.:.:.:.:.:.:.:.:.:.:.:.Y 9 : r @.:.:.:.:.:.:.:.:.V ; ",
". G :.:.:.:.:.:.:.:.e.k 5 < Y :.:.:.:.:.:.:.:.:.:.:.:.:.:.:.:.:.:.:.:.Y 9 : t @.:.:.:.:.:.:.:.:.V ; ",
". G :.:.:.:.:.:.:.:.e.k 5 2 Y :.:.:.:.:.:.:.:.:.:.:.:.:.:.:.:.:.:.:.:.Y 9 : r @.:.:.:.:.:.:.:.:.V ; ",
". G :.:.:.:.:.:.:.:.e.k 5 2 Y :.:.:.:.:.:.:.:.:.:.:.:.:.:.:.:.:.:.:.:.Y 9 = t @.:.:.:.:.:.:.:.:.V ; ",
". G :.:.:.:.:.:.:.:.:.V 5 < Y :.:.:.:.:.:.:.:.:.:.:.:.:.:.:.:.:.:.:.:.Y 9 - t @.:.e.:.:.:.:.:.:.V ; ",
"  e r r r r r r r r r e 2 , e r r r r r r r r r r r r r r r r r r r r e 6 : 9 r r r r r r r r r e # ",
"  . # # # # # # # # # - = : = # # # # # # # # # # # # # # # # # # # # % = : = # # # # # # # # # +   ",
"    * : : = = : = = : = = : : = = = = : : = : : : = : = : : : : : : = : : : : : : : = : : : : : O   ",
"  @ f / / / / / / / / / / / / / / / / / / / / q = : 2 f / / / / / / / / / / / / / / / / / / / / 9   ",
"  / u.u.u.u.u.u.u.u.u.u.u.u.u.u.u.u.u.u.u.i.u.{ 6 , f u.u.u.u.u.u.u.u.u.u.u.u.u.u.u.u.u.u.u.u.u.{ - ",
". / :.:.&.:.:.:.:.:.:.:.:.:.:.:.:.:.:.:.:.:.:.c 8 , s @.:.:.:.:.:.:.:.:.:.:.:.:.:.:.:.:.:.:.:.:.V ; ",
". G :.:.:.:.:.:.:.:.:.:.:.:.:.:.:.:.:.:.:.:.:.c 8 - s @.:.:.:.:.:.:.:.:.:.:.:.:.:.:.:.:.:.:.:.:.V ; ",
". G :.:.:.:.:.:.:.:.:.:.:.:.:.:.:.:.:.:.:.:.:.Y 8 - s @.:.:.:.:.:.:.:.:.:.:.:.:.:.:.:.:.:.:.:.:.V ; ",
". G :.:.:.:.:.:.:.:.:.:.:.:.:.:.:.:.:.:.:.:.:.Y 8 = s @.:.:.:.:.:.:.:.:.:.:.:.:.:.:.:.:.:.:.:.:.V ; ",
". / :.:.:.:.:.:.:.:.:.:.:.:.:.:.:.:.:.:.:.:.:.Y 8 - s @.:.:.:.:.:.:.:.:.:.:.:.:.:.:.:.:.:.:.:.:.V ; ",
". / :.:.:.:.:.:.:.:.:.:.:.:.:.:.:.:.:.:.:.:.:.c 8 - s @.:.:.:.:.:.:.:.:.:.:.:.:.:.:.:.:.:.:.:.:.V ; ",
". / :.:.:.:.:.:.:.:.:.:.:.:.:.:.:.:.:.:.:.:.:.c 8 - s @.:.:.:.:.:.:.:.:.:.:.:.:.:.:.:.:.:.:.:.:.V ; ",
". G :.:.:.:.:.:.:.:.:.:.:.:.:.:.:.:.:.:.:.:.:.c 8 = s @.:.:.:.:.:.:.:.:.:.:.:.:.:.:.:.:.:.:.:.:.V ; ",
". G :.:.:.:.:.:.:.:.:.:.:.:.:.:.:.:.:.:.:.:.:.c 8 = s @.:.:.:.:.:.:.:.:.:.:.:.:.:.:.:.:.:.:.:.:.V < ",
". / :.:.:.:.:.:.:.:.:.:.:.:.:.:.:.:.:.:.:.:.:.c 8 - s @.:.:.:.:.:.:.:.:.:.:.:.:.:.:.:.:.:.:.:.:.V < ",
". G :.:.:.:.:.:.:.:.:.:.:.:.:.:.:.:.:.:.:.:.:.c 8 - s @.:.:.:.:.:.:.:.:.:.:.:.:.:.:.:.:.:.:.:.:.V < ",
". G :.:.:.:.:.:.:.:.:.:.:.:.:.:.:.:.:.:.:.:.:.c 8 = s @.:.:.:.:.:.:.:.:.:.:.:.:.:.:.:.:.:.:.:.:.V < ",
"  9 e w w w e e w e w w w w w w w w w w w e e 7 #   4 w w w w w e e w w w e w w w w w w w w w e 8 # ",
"    o o o o o o o o o o o o o o o o o o o o o X       o o o o o o o o o o o o o o o o o o o o o X   "
};
