/* XPM */
static char * Brick_xpm[] = {
"50 50 2 1",
" 	c #C84C0C",
".	c #000000",
"                      ...                      ...",
"                      ...                      ...",
"                      ...                      ...",
"                      ...                      ...",
"                      ...                      ...",
"                      ...                      ...",
"                      ...                      ...",
"                      ...                      ...",
"                      ...                      ...",
"..................................................",
"..................................................",
"..................................................",
"         ...                      ...             ",
"         ...                      ...             ",
"         ...                      ...             ",
"         ...                      ...             ",
"         ...                      ...             ",
"         ...                      ...             ",
"         ...                      ...             ",
"         ...                      ...             ",
"         ...                      ...             ",
"         ...                      ...             ",
"..................................................",
"..................................................",
"..................................................",
"                      ...                      ...",
"                      ...                      ...",
"                      ...                      ...",
"                      ...                      ...",
"                      ...                      ...",
"                      ...                      ...",
"                      ...                      ...",
"                      ...                      ...",
"                      ...                      ...",
"..................................................",
"..................................................",
"..................................................",
"         ...                      ...             ",
"         ...                      ...             ",
"         ...                      ...             ",
"         ...                      ...             ",
"         ...                      ...             ",
"         ...                      ...             ",
"         ...                      ...             ",
"         ...                      ...             ",
"         ...                      ...             ",
"         ...                      ...             ",
"..................................................",
"..................................................",
".................................................."};
