/* XPM */
static char * castle_xpm[] = {
"51 51 547 2",
"  	c #40A70A",
". 	c #259C05",
"+ 	c #3FA10D",
"@ 	c #1C9502",
"# 	c #41AD0A",
"$ 	c #2EA707",
"% 	c #219705",
"& 	c #3CA00A",
"* 	c #29A106",
"= 	c #1F9103",
"- 	c #36A907",
"; 	c #33A007",
"> 	c #34B308",
", 	c #36A308",
"' 	c #2FA408",
") 	c #198E01",
"! 	c #2A9706",
"~ 	c #47AC0D",
"{ 	c #199000",
"] 	c #2D9905",
"^ 	c #39A309",
"/ 	c #259D05",
"( 	c #229104",
"_ 	c #1F9102",
": 	c #279705",
"< 	c #188C01",
"[ 	c #168C02",
"} 	c #2A9707",
"| 	c #30A606",
"1 	c #1D8F04",
"2 	c #33A408",
"3 	c #2B9A06",
"4 	c #4AA40D",
"5 	c #319707",
"6 	c #39A20A",
"7 	c #279206",
"8 	c #32A007",
"9 	c #35AA08",
"0 	c #4AAD0E",
"a 	c #2D9508",
"b 	c #42AC0B",
"c 	c #2DA608",
"d 	c #41AA0A",
"e 	c #41A80B",
"f 	c #2DA007",
"g 	c #3A9D0B",
"h 	c #299505",
"i 	c #1C8E04",
"j 	c #098700",
"k 	c #339E07",
"l 	c #49B20C",
"m 	c #209203",
"n 	c #339808",
"o 	c #38A308",
"p 	c #219204",
"q 	c #209A02",
"r 	c #229D03",
"s 	c #2C9E06",
"t 	c #389D09",
"u 	c #379A08",
"v 	c #FCBCB0",
"w 	c #36A109",
"x 	c #40B10A",
"y 	c #2C9F06",
"z 	c #3DA509",
"A 	c #4EB50F",
"B 	c #3BA10A",
"C 	c #219203",
"D 	c #169A01",
"E 	c #269804",
"F 	c #2FA206",
"G 	c #3E9F0B",
"H 	c #0C8E00",
"I 	c #209800",
"J 	c #3DA50B",
"K 	c #2F9E08",
"L 	c #44AD0C",
"M 	c #2DA405",
"N 	c #279306",
"O 	c #46A20D",
"P 	c #2F9E07",
"Q 	c #1D9101",
"R 	c #299506",
"S 	c #2E9C07",
"T 	c #289506",
"U 	c #42A20C",
"V 	c #47AB0B",
"W 	c #369D0A",
"X 	c #33A306",
"Y 	c #399B0B",
"Z 	c #41A50B",
"` 	c #2A9407",
" .	c #249C05",
"..	c #3FAE0B",
"+.	c #37A109",
"@.	c #C84C0C",
"#.	c #2E9C08",
"$.	c #389C0A",
"%.	c #1F9402",
"&.	c #269B04",
"*.	c #2FA507",
"=.	c #4AB40D",
"-.	c #188D02",
";.	c #3DA60B",
">.	c #3AB409",
",.	c #27A204",
"'.	c #2D9906",
").	c #319D09",
"!.	c #2B9806",
"~.	c #40A00C",
"{.	c #299508",
"].	c #209504",
"^.	c #359A09",
"/.	c #35A607",
"(.	c #2CA806",
"_.	c #41B20C",
":.	c #45AC0D",
"<.	c #339A09",
"[.	c #2E9807",
"}.	c #44AB0E",
"|.	c #42AB0D",
"1.	c #34A509",
"2.	c #30A409",
"3.	c #30A306",
"4.	c #2C9A07",
"5.	c #1D9004",
"6.	c #34A109",
"7.	c #32A209",
"8.	c #2C9D05",
"9.	c #2C9305",
"0.	c #169100",
"a.	c #359809",
"b.	c #31A208",
"c.	c #30A704",
"d.	c #3BA50B",
"e.	c #34A008",
"f.	c #4BAA0F",
"g.	c #35A707",
"h.	c #319B07",
"i.	c #2BA204",
"j.	c #289904",
"k.	c #2FA105",
"l.	c #2AA106",
"m.	c #3FA70D",
"n.	c #2D9608",
"o.	c #0D8C00",
"p.	c #399F0A",
"q.	c #42A809",
"r.	c #259D03",
"s.	c #179602",
"t.	c #2C9607",
"u.	c #3A9B04",
"v.	c #2B9F06",
"w.	c #23AD01",
"x.	c #389A0A",
"y.	c #43A50D",
"z.	c #30A506",
"A.	c #269506",
"B.	c #4FB00F",
"C.	c #38A507",
"D.	c #1E9103",
"E.	c #32A008",
"F.	c #419F0D",
"G.	c #31A808",
"H.	c #249704",
"I.	c #339C08",
"J.	c #299906",
"K.	c #1B8E03",
"L.	c #319E05",
"M.	c #47AD0D",
"N.	c #35A409",
"O.	c #1E9003",
"P.	c #169501",
"Q.	c #2B9B06",
"R.	c #3DA40B",
"S.	c #45B50C",
"T.	c #339D09",
"U.	c #1C9204",
"V.	c #34A007",
"W.	c #3BAF09",
"X.	c #31A609",
"Y.	c #2B9A07",
"Z.	c #1F9902",
"`.	c #36A708",
" +	c #41A309",
".+	c #2F9F08",
"++	c #2EA007",
"@+	c #1C9104",
"#+	c #208F04",
"$+	c #28A204",
"%+	c #279C03",
"&+	c #42B20C",
"*+	c #3AA30B",
"=+	c #2D9908",
"-+	c #229A05",
";+	c #319C08",
">+	c #33A507",
",+	c #38A309",
"'+	c #36A50A",
")+	c #2F9808",
"!+	c #22A204",
"~+	c #000000",
"{+	c #369B08",
"]+	c #249602",
"^+	c #2EA807",
"/+	c #209005",
"(+	c #319D08",
"_+	c #26A105",
":+	c #35AB0A",
"<+	c #1FA302",
"[+	c #2F9907",
"}+	c #299307",
"|+	c #3A9E09",
"1+	c #208D02",
"2+	c #44B20B",
"3+	c #269306",
"4+	c #2A9406",
"5+	c #329F07",
"6+	c #178E01",
"7+	c #1D9402",
"8+	c #249604",
"9+	c #369C08",
"0+	c #299605",
"a+	c #3A9D09",
"b+	c #2E9A07",
"c+	c #269305",
"d+	c #389D0A",
"e+	c #3AA909",
"f+	c #41A00C",
"g+	c #219104",
"h+	c #38A00A",
"i+	c #3EA00B",
"j+	c #149100",
"k+	c #28A205",
"l+	c #289B03",
"m+	c #1F9A01",
"n+	c #299C04",
"o+	c #279105",
"p+	c #3F9D0C",
"q+	c #369F07",
"r+	c #2AA804",
"s+	c #2FA907",
"t+	c #309D07",
"u+	c #1B8D00",
"v+	c #45B20B",
"w+	c #2D9B06",
"x+	c #4DA60E",
"y+	c #3CA80A",
"z+	c #309C07",
"A+	c #2E9A06",
"B+	c #26A306",
"C+	c #279D04",
"D+	c #369A09",
"E+	c #189600",
"F+	c #1E9703",
"G+	c #3FA80A",
"H+	c #27A504",
"I+	c #38A009",
"J+	c #279F02",
"K+	c #369A08",
"L+	c #41A10B",
"M+	c #369E07",
"N+	c #31A507",
"O+	c #199002",
"P+	c #49AA0D",
"Q+	c #3CA00B",
"R+	c #42A40D",
"S+	c #199101",
"T+	c #379F08",
"U+	c #35A006",
"V+	c #33AA07",
"W+	c #259D01",
"X+	c #279504",
"Y+	c #2C9C05",
"Z+	c #229205",
"`+	c #3AA508",
" @	c #1E9203",
".@	c #2DA206",
"+@	c #45A60C",
"@@	c #299B04",
"#@	c #36AE09",
"$@	c #289903",
"%@	c #229705",
"&@	c #379C0A",
"*@	c #139401",
"=@	c #389E0B",
"-@	c #249504",
";@	c #269103",
">@	c #43B30B",
",@	c #40A50B",
"'@	c #339C09",
")@	c #3FA10C",
"!@	c #36A509",
"~@	c #36A709",
"{@	c #279F03",
"]@	c #289306",
"^@	c #40AA0A",
"/@	c #29A406",
"(@	c #3EA809",
"_@	c #39A208",
":@	c #3AA60A",
"<@	c #2FA707",
"[@	c #2EAA06",
"}@	c #33A708",
"|@	c #2C9406",
"1@	c #389B0A",
"2@	c #2D9A08",
"3@	c #35A106",
"4@	c #2AA607",
"5@	c #42AB0A",
"6@	c #269605",
"7@	c #279406",
"8@	c #239905",
"9@	c #2F9804",
"0@	c #4CAB0F",
"a@	c #209804",
"b@	c #319808",
"c@	c #289705",
"d@	c #42B70B",
"e@	c #42AF0B",
"f@	c #1E9704",
"g@	c #31A006",
"h@	c #259804",
"i@	c #34A307",
"j@	c #269B03",
"k@	c #49A50E",
"l@	c #43A30B",
"m@	c #39A10B",
"n@	c #1F8E03",
"o@	c #209404",
"p@	c #369C07",
"q@	c #178B02",
"r@	c #47B10D",
"s@	c #3E9E0A",
"t@	c #269D04",
"u@	c #21A402",
"v@	c #28AE04",
"w@	c #249703",
"x@	c #39A50A",
"y@	c #329909",
"z@	c #249204",
"A@	c #198F03",
"B@	c #279602",
"C@	c #2B9506",
"D@	c #47A50E",
"E@	c #29A905",
"F@	c #38A807",
"G@	c #2DA303",
"H@	c #259106",
"I@	c #27A903",
"J@	c #379B0A",
"K@	c #229B05",
"L@	c #259805",
"M@	c #2B9406",
"N@	c #178C01",
"O@	c #178C02",
"P@	c #1F9400",
"Q@	c #23A002",
"R@	c #179102",
"S@	c #3CA709",
"T@	c #239105",
"U@	c #43A20D",
"V@	c #3E9E0B",
"W@	c #30A007",
"X@	c #46A60D",
"Y@	c #44A50D",
"Z@	c #2D9D05",
"`@	c #359E08",
" #	c #249305",
".#	c #2E9608",
"+#	c #1C8D03",
"@#	c #22A101",
"##	c #33A209",
"$#	c #299905",
"%#	c #369B09",
"&#	c #3EA10C",
"*#	c #32B306",
"=#	c #2EB007",
"-#	c #249803",
";#	c #37A709",
">#	c #309B08",
",#	c #179801",
"'#	c #3AAA0A",
")#	c #379D09",
"!#	c #2D9A03",
"~#	c #2A9907",
"{#	c #289D04",
"]#	c #299D03",
"^#	c #209202",
"/#	c #48A80F",
"(#	c #33A108",
"_#	c #42B20B",
":#	c #32A206",
"<#	c #279605",
"[#	c #169001",
"}#	c #49AE0D",
"|#	c #2F9F07",
"1#	c #249104",
"2#	c #3DAB0A",
"3#	c #31A003",
"4#	c #32A608",
"5#	c #3EA20C",
"6#	c #2C9908",
"7#	c #239104",
"8#	c #4CB00F",
"9#	c #2D9606",
"0#	c #339A08",
"a#	c #389E0A",
"b#	c #309906",
"c#	c #3AA008",
"d#	c #4AA50E",
"e#	c #289206",
"f#	c #239605",
"g#	c #3DAA0A",
"h#	c #48A60E",
"i#	c #1A8D01",
"j#	c #3CA90A",
"k#	c #34A808",
"l#	c #269404",
"m#	c #1F8E04",
"n#	c #36A00B",
"o#	c #299C05",
"p#	c #35A307",
"q#	c #26A003",
"r#	c #289407",
"s#	c #3FB60C",
"t#	c #3AAA09",
"u#	c #46A80B",
"v#	c #2AA605",
"w#	c #1F9D04",
"x#	c #1EA201",
"y#	c #3FA90A",
"z#	c #239C04",
"A#	c #2D9907",
"B#	c #359F09",
"C#	c #41AA0D",
"D#	c #43BF0D",
"E#	c #2D9D04",
"F#	c #3AA90A",
"G#	c #2DA604",
"H#	c #4AA60E",
"I#	c #34A708",
"J#	c #399F07",
"K#	c #319609",
"L#	c #49A50F",
"M#	c #3CB007",
"N#	c #44A60C",
"O#	c #2CA205",
"P#	c #27A302",
"Q#	c #1B8E02",
"R#	c #2A9607",
"S#	c #339809",
"T#	c #2F9B05",
"U#	c #37A106",
"V#	c #329608",
"W#	c #279D06",
"X#	c #2A9806",
"Y#	c #329A06",
"Z#	c #3BA00B",
"`#	c #279305",
" $	c #43A509",
".$	c #44A70B",
"+$	c #3AA40A",
"@$	c #4BA80E",
"#$	c #2C9F07",
"$$	c #45A10E",
"%$	c #399C09",
"&$	c #35AF08",
"*$	c #1C9501",
"=$	c #399F09",
"-$	c #53BC10",
";$	c #3DA30A",
">$	c #259B01",
",$	c #2E9F06",
"'$	c #2B9903",
")$	c #1E8E02",
"!$	c #158D01",
"~$	c #2CA507",
"{$	c #3A9C0B",
"]$	c #3AA507",
"^$	c #2A9C07",
"/$	c #149903",
"($	c #369E0A",
"_$	c #319809",
":$	c #189C02",
"<$	c #349C08",
"[$	c #2EA104",
"}$	c #299507",
"|$	c #239404",
"1$	c #2DA105",
"2$	c #239205",
"3$	c #179103",
"4$	c #2F9708",
"5$	c #279A05",
"6$	c #319B08",
"7$	c #329908",
"8$	c #3B9D0A",
"9$	c #329809",
"0$	c #188E03",
"a$	c #49A50D",
"b$	c #1E9902",
"c$	c #1B8D03",
"d$	c #2F9D07",
"e$	c #299A06",
"f$	c #2AA004",
"g$	c #2D9605",
"h$	c #339908",
"i$	c #3C9C0B",
"j$	c #3B9E0B",
"k$	c #4FC00E",
"l$	c #259704",
"m$	c #349F07",
"n$	c #259507",
"o$	c #43A70B",
"p$	c #329C07",
"q$	c #279B04",
"r$	c #41AD0D",
"s$	c #2CA406",
"t$	c #42A60B",
"u$	c #4DB10C",
"v$	c #2FA207",
"w$	c #4FAD10",
"x$	c #3EB50C",
"y$	c #36A908",
"z$	c #259A04",
"A$	c #249205",
"B$	c #3EA20B",
"C$	c #2C9F05",
"D$	c #34A506",
"E$	c #259F05",
"F$	c #239803",
"G$	c #45AB0B",
"H$	c #2A9C05",
"I$	c #138A00",
"J$	c #158B01",
"K$	c #1E9204",
"L$	c #36B00A",
"M$	c #3D9D0C",
"N$	c #349E08",
"O$	c #33A009",
"P$	c #2C9806",
"Q$	c #39A509",
"R$	c #35A308",
"S$	c #309D06",
"T$	c #35A508",
"U$	c #2DA905",
"V$	c #0C8500",
"  . + @ # $ % & * = - ; > , ' ) ! ~ { ] ^ / ( _ : < [ } | 1 2 3 4 5 6 7 8 9 0 a b c d e f g h i j k l ",
"m a n o p q r s t u v v w x y z A v v v v v B C D 1 E v v v v v F G H I 2 v v v J K L M N O P Q R S T ",
"U V W X Y Z `  ...+.@.@.#.$.k %.&.@.@.@.@.@.*.=.-.;.>.@.@.@.@.@.,.'.).!.~.@.@.@.{.].^./.(._.:.<.[.}.|.",
"1.b 2.3.4.5.6.7.8.9.@.@.0.a.b.c.d.@.@.@.@.@.e.f.g.h.i.@.@.@.@.@.j.k.l.m.n.@.@.@.o.p.q.r.s.t.u.v.w.x.y.",
"z.A.B.C.D.E.F.G.H.I.@.@.J.K.L.(.M.@.@.@.@.@.N.O.P.Q.R.@.@.@.@.@.S.T.U.V.W.@.@.@.X.Y.Z.`. +.+++@+#+$+%+",
"&+*+=+-+;+>+,+'+)+!+~+~+v v v v v ~+~+~+~+~+v v v v v ~+~+~+~+~+v v v v v ~+~+~+{+]+^+/+(+[ _+:+<+[+}+",
"|+1+2+3+4+5+6+7+8+9+@.@.@.@.~+@.@.@.@.~+@.@.@.@.~+@.@.@.@.~+@.@.@.@.~+@.@.@.@.~+0+a++.b+c+d+e+f+g+h+p.",
"i+j+k+l+m+n+o+p+3+q+@.@.@.@.~+@.@.@.@.~+@.@.@.@.~+@.@.@.@.~+@.@.@.@.~+@.@.@.@.~+r+s+t+u+v+w+x+[.y+z+A+",
"B+[+C+D+e E+F+G+H+I+@.@.@.@.@.@.@.@.@.@.@.@.@.@.@.@.@.@.@.@.@.@.@.@.@.@.@.@.@.@.C+J+K+L+M+N+O+*.P+Q+R+",
"S+T+c+U+V+W+Z i+X+Y+@.@.@.@.@.@.@.@.@.@.@.@.@.@.@.@.@.@.@.@.@.@.@.@.@.@.@.@.@.@.Z+`+ @.@+@~.@@#@$@%@&@",
"*@=@-@;@>@N.,@& '@)@~+~+~+~+~+~+~+~+~+~+~+~+~+~+~+~+~+~+~+~+~+~+~+~+~+~+~+~+~+~+!@~@{@]@^@/@(@_@V.:@<@",
"[@}@^ |@1@y+2@3@4@5@@.@.@.@.~+~+~+~+~+~+@.@.@.@.~+@.@.@.@.~+~+~+~+~+~+@.@.@.@.~+6@7@8@9@| 0@a@b@c@d@e@",
"f@g@h@i@j@k@l@m@n@o@@.@.@.@.~+~+~+~+~+~+@.@.@.@.~+@.@.@.@.~+~+~+~+~+~+@.@.@.@.~+p@q@&@r@s@t@u@v@w@x@y@",
"z@;+A@)+B@C@D@E@F@G@@.@.@.@.@.~+~+~+~+~+@.@.@.@.@.@.@.@.@.@.~+~+~+~+~+@.@.@.@.@.H@Z.I@J@K@L@M@N@O@P@J ",
"Q@R@S@T@U@V@W@X@Y@Z@@.@.@.@.@.~+~+~+~+~+@.@.@.@.@.@.@.@.@.@.~+~+~+~+~+@.@.@.@.@.`@ #.#+#@###$#%#;+&#*#",
"=#-#;#>#,#'#)#L@!#~#~+~+~+~+~+~+~+~+~+~+~+~+~+~+~+~+~+~+~+~+~+~+~+~+~+~+~+~+~+~+{#]#^#K /#(#_#:#<#[#}#",
"|#1#]+2#3#J@4#5#*+6#@.@.@.@.~+~+~+~+~+~+@.@.@.@.~+@.@.@.@.~+~+~+~+~+~+@.@.@.@.~+7#.#8#9#0#a#b#c#d#e#f#",
"M@g#h#i#j#k#l#m#n#o#@.@.@.@.~+~+~+~+~+~+@.@.@.@.~+@.@.@.@.~+~+~+~+~+~+@.@.@.@.~+p#q#r#s#t#>+u#p.'@v#w#",
"x#y#z#A#B#C#D#E#F#G#@.@.@.@.@.~+~+~+~+~+@.@.@.@.@.@.@.@.@.@.~+~+~+~+~+@.@.@.@.@.H#I#J#K#L#M#N#[+O#P#Q#",
"R#S#T#U#V#W#X#D.Y#Z#@.@.@.@.@.~+~+~+~+~+@.@.@.@.@.@.@.@.@.@.~+~+~+~+~+@.@.@.@.@.A `# $.$+$@$#$$$%$&$*$",
"=$-$;$>$,$'$)$!$, ~$~+~+~+~+~+~+~+~+~+~+~+~+~+~+~+~+~+~+~+~+~+~+~+~+~+~+~+~+~+~+{$]$^$/$($_$:$<$[$C@}$",
"v v |$$.1$2$o#v v v v v @.@.~+@.@.v v v v v @.@.~+@.@.v v v v v @.@.~+@.@.v v v v v 3$4$5$6$7$v v v 8$",
"@.@.9$0$a$Z+b$@.@.@.@.@.@.@.~+@.@.@.@.@.@.@.@.@.~+@.@.@.@.@.@.@.@.@.~+@.@.@.@.@.@.@.c$d$e$f$g$@.@.@.h$",
"@.@.i$j$k$l$m$@.@.@.@.@.@.@.@.@.@.@.@.@.@.@.@.@.@.@.@.@.@.@.@.@.@.@.@.@.@.@.@.@.@.@.n$o$p$q$r$@.@.@.s$",
"@.@.t$u$v$w$x$@.@.@.@.@.@.@.@.@.@.@.@.@.@.@.@.@.@.@.@.@.@.@.@.@.@.@.@.@.@.@.@.@.@.@.y$z$A$s$$.@.@.@.B$",
"~+~+v v v v v ~+~+~+~+~+v v v v v ~+~+~+~+~+v v v v v ~+~+~+~+~+v v v v v ~+~+~+~+~+v v v v v ~+~+~+C$",
"@.@.@.@.~+@.@.@.@.~+@.@.@.@.~+@.@.@.@.~+@.@.@.@.~+@.@.@.@.~+@.@.@.@.~+@.@.@.@.~+@.@.@.@.~+@.@.@.@.~+%$",
"@.@.@.@.~+@.@.@.@.~+@.@.@.@.~+@.@.@.@.~+@.@.@.@.~+@.@.@.@.~+@.@.@.@.~+@.@.@.@.~+@.@.@.@.~+@.@.@.@.~+D$",
"@.@.@.@.@.@.@.@.@.@.@.@.@.@.@.@.@.@.@.@.@.@.@.@.@.@.@.@.@.@.@.@.@.@.@.@.@.@.@.@.@.@.@.@.@.@.@.@.@.@.L+",
"@.@.@.@.@.@.@.@.@.@.@.@.@.@.@.@.@.@.@.@.@.@.@.@.@.@.@.@.@.@.@.@.@.@.@.@.@.@.@.@.@.@.@.@.@.@.@.@.@.@.E$",
"~+~+~+~+~+~+~+~+~+~+~+~+~+~+~+~+~+~+~+~+~+~+~+~+~+~+~+~+~+~+~+~+~+~+~+~+~+~+~+~+~+~+~+~+~+~+~+~+~+~+F$",
"@.@.@.@.~+@.@.@.@.~+@.@.@.@.~+@.@.@.@.~+@.@.@.~+~+~+~+@.@.~+@.@.@.@.~+@.@.@.@.~+@.@.@.@.~+@.@.@.@.~+G$",
"@.@.@.@.~+@.@.@.@.~+@.@.@.@.~+@.@.@.@.~+@.~+~+~+~+~+~+~+~+~+@.@.@.@.~+@.@.@.@.~+@.@.@.@.~+@.@.@.@.~+H$",
"@.@.@.@.@.@.@.@.@.@.@.@.@.@.@.@.@.@.@.@.@.~+~+~+~+~+~+~+~+@.@.@.@.@.@.@.@.@.@.@.@.@.@.@.@.@.@.@.@.@.I$",
"@.@.@.@.@.@.@.@.@.@.@.@.@.@.@.@.@.@.@.@.@.~+~+~+~+~+~+~+~+@.@.@.@.@.@.@.@.@.@.@.@.@.@.@.@.@.@.@.@.@.J$",
"~+~+~+~+~+~+~+~+~+~+~+~+~+~+~+~+~+~+~+~+~+~+~+~+~+~+~+~+~+~+~+~+~+~+~+~+~+~+~+~+~+~+~+~+~+~+~+~+~+~+K$",
"@.@.@.@.~+@.@.@.@.~+@.@.@.@.~+@.@.@.@.~+~+~+~+~+~+~+~+~+~+~+@.@.@.@.~+@.@.@.@.~+@.@.@.@.~+@.@.@.@.~+L$",
"@.@.@.@.~+@.@.@.@.~+@.@.@.@.~+@.@.@.@.~+~+~+~+~+~+~+~+~+~+~+@.@.@.@.~+@.@.@.@.~+@.@.@.@.~+@.@.@.@.~+M$",
"@.@.@.@.@.@.@.@.@.@.@.@.@.@.@.@.@.@.@.@.~+~+~+~+~+~+~+~+~+~+@.@.@.@.@.@.@.@.@.@.@.@.@.@.@.@.@.@.@.@.N$",
"@.@.@.@.@.@.@.@.@.@.@.@.@.@.@.@.@.@.@.@.~+~+~+~+~+~+~+~+~+~+@.@.@.@.@.@.@.@.@.@.@.@.@.@.@.@.@.@.@.@.A#",
"~+~+~+~+~+~+~+~+~+~+~+~+~+~+~+~+~+~+~+~+~+~+~+~+~+~+~+~+~+~+~+~+~+~+~+~+~+~+~+~+~+~+~+~+~+~+~+~+~+~+4#",
"@.@.@.@.~+@.@.@.@.~+@.@.@.@.~+@.@.@.@.~+~+~+~+~+~+~+~+~+~+~+@.@.@.@.~+@.@.@.@.~+@.@.@.@.~+@.@.@.@.~+O$",
"@.@.@.@.~+@.@.@.@.~+@.@.@.@.~+@.@.@.@.~+~+~+~+~+~+~+~+~+~+~+@.@.@.@.~+@.@.@.@.~+@.@.@.@.~+@.@.@.@.~+P$",
"@.@.@.@.@.@.@.@.@.@.@.@.@.@.@.@.@.@.@.@.~+~+~+~+~+~+~+~+~+~+@.@.@.@.@.@.@.@.@.@.@.@.@.@.@.@.@.@.@.@.Q$",
"@.@.@.@.@.@.@.@.@.@.@.@.@.@.@.@.@.@.@.@.~+~+~+~+~+~+~+~+~+~+@.@.@.@.@.@.@.@.@.@.@.@.@.@.@.@.@.@.@.@.R$",
"~+~+~+~+~+~+~+~+~+~+~+~+~+~+~+~+~+~+~+~+~+~+~+~+~+~+~+~+~+~+~+~+~+~+~+~+~+~+~+~+~+~+~+~+~+~+~+~+~+~+S$",
"@.@.@.@.~+@.@.@.@.~+@.@.@.@.~+@.@.@.@.~+~+~+~+~+~+~+~+~+~+~+@.@.@.@.~+@.@.@.@.~+@.@.@.@.~+@.@.@.@.~+4$",
"@.@.@.@.~+@.@.@.@.~+@.@.@.@.~+@.@.@.@.~+~+~+~+~+~+~+~+~+~+~+@.@.@.@.~+@.@.@.@.~+@.@.@.@.~+@.@.@.@.~+T$",
"@.@.@.@.@.@.@.@.@.@.@.@.@.@.@.@.@.@.@.@.~+~+~+~+~+~+~+~+~+~+@.@.@.@.@.@.@.@.@.@.@.@.@.@.@.@.@.@.@.@.{#",
"@.@.@.@.@.@.@.@.@.@.@.@.@.@.@.@.@.@.@.@.~+~+~+~+~+~+~+~+~+~+@.@.@.@.@.@.@.@.@.@.@.@.@.@.@.@.@.@.@.@.U$",
"~+~+~+~+~+~+~+~+~+~+~+~+~+~+~+~+~+~+~+~+~+~+~+~+~+~+~+~+~+~+~+~+~+~+~+~+~+~+~+~+~+~+~+~+~+~+~+~+~+~+V$"};
