/* XPM */
static char *d7a9dc31193b417dbe088771e0b8bfb1CZbRc8le40yjFpko[] = {
/* columns rows colors chars-per-pixel */
"50 50 210 2 ",
"   c #010100",
".  c #090401",
"X  c #0D0807",
"o  c #130701",
"O  c #150801",
"+  c #1C0B02",
"@  c #220D02",
"#  c #290F02",
"$  c #27120A",
"%  c #361403",
"&  c #2B1A14",
"*  c #38231D",
"=  c #431A04",
"-  c #4E1E05",
";  c #521F05",
":  c #542005",
">  c #5D2406",
",  c #5D3B07",
"<  c #662706",
"1  c #682705",
"2  c #6B2906",
"3  c #662A0C",
"4  c #742C07",
"5  c #7A2E07",
"6  c #742E0A",
"7  c #7B2F08",
"8  c #683F06",
"9  c #7C3207",
"0  c #763108",
"q  c #7C3109",
"w  c #692E10",
"e  c #6E3418",
"r  c #70361B",
"t  c #723E20",
"y  c #7A3D20",
"u  c #694208",
"i  c #744407",
"p  c #7E4504",
"a  c #843207",
"s  c #8A3406",
"d  c #843309",
"f  c #8A3408",
"g  c #873808",
"h  c #8D380C",
"j  c #913607",
"k  c #913709",
"l  c #943909",
"z  c #9A3B0A",
"x  c #853913",
"c  c #963F13",
"v  c #A23D0A",
"b  c #844907",
"n  c #884C09",
"m  c #96450C",
"M  c #925109",
"N  c #9C5309",
"B  c #9A4115",
"V  c #AC410A",
"C  c #B04209",
"Z  c #A35509",
"A  c #AA580A",
"S  c #BC5E09",
"D  c #B44B15",
"F  c #BA4D15",
"G  c #B84D18",
"H  c #A65D11",
"J  c #B75017",
"K  c #BB511C",
"L  c #834422",
"P  c #964722",
"I  c #944D22",
"U  c #925C23",
"Y  c #B95524",
"T  c #B65A24",
"R  c #BE5C24",
"E  c #A45532",
"W  c #AB5732",
"Q  c #A35A31",
"!  c #A85936",
"~  c #B25C34",
"^  c #BD5F34",
"/  c #B65F38",
"(  c #AE6D3A",
")  c #B4603B",
"_  c #B87739",
"`  c #C94B0A",
"'  c #C3531A",
"]  c #CD561A",
"[  c #CD591D",
"{  c #C1691B",
"}  c #C05B25",
"|  c #CA5C23",
" . c #C15B29",
".. c #CC5E2A",
"X. c #D1632C",
"o. c #C66437",
"O. c #C86735",
"+. c #C6663B",
"@. c #C56E38",
"#. c #CA693D",
"$. c #D46937",
"%. c #C87132",
"&. c #D07537",
"*. c #D47338",
"=. c #B96845",
"-. c #BB6C4B",
";. c #BF704D",
":. c #BD7255",
">. c #C16F46",
",. c #CD6D42",
"<. c #D06E42",
"1. c #CE7046",
"2. c #CC724B",
"3. c #D77347",
"4. c #D57D44",
"5. c #DB794F",
"6. c #C07555",
"7. c #DD7D55",
"8. c #778903",
"9. c #749402",
"0. c #759B02",
"q. c #7A9D01",
"w. c #789807",
"e. c #7CA102",
"r. c #7FAA00",
"t. c #7EA30D",
"y. c #818C08",
"u. c #879904",
"i. c #849C05",
"p. c #8C9C09",
"a. c #909E06",
"s. c #879D1A",
"d. c #83AD01",
"f. c #89A906",
"g. c #82A30D",
"h. c #86AF09",
"j. c #8BAD0B",
"k. c #93A308",
"l. c #96A30A",
"z. c #86B103",
"x. c #8AB405",
"c. c #8DB806",
"v. c #87B00A",
"b. c #8CB509",
"n. c #8CB90A",
"m. c #93B50C",
"M. c #93B90B",
"N. c #99BB0D",
"B. c #88AA16",
"V. c #9CAD15",
"C. c #93A71B",
"Z. c #99B815",
"A. c #A8B316",
"S. c #A2BD1D",
"D. c #B79B39",
"F. c #96A821",
"G. c #AFAE2C",
"H. c #A6B623",
"J. c #A7BB25",
"K. c #ADAC37",
"L. c #B9A23C",
"P. c #B4B23C",
"I. c #BFB33E",
"U. c #BEBA3C",
"Y. c #CB8636",
"T. c #C5833A",
"R. c #CD8A3B",
"E. c #C2A736",
"W. c #C1A53A",
"Q. c #C5AA3C",
"!. c #C1BE3E",
"~. c #9EC10D",
"^. c #9FC218",
"/. c #A4C80D",
"(. c #A1C311",
"). c #A6CA13",
"_. c #A9CD13",
"`. c #A9C61A",
"'. c #ABCC1B",
"]. c #B0CD1D",
"[. c #ADD115",
"{. c #AFD31B",
"}. c #B0D419",
"|. c #ADC629",
" X c #B3CA24",
".X c #B5C62C",
"XX c #B2D124",
"oX c #B9C533",
"OX c #BD8849",
"+X c #B19A44",
"@X c #BC9E49",
"#X c #B9A745",
"$X c #BDB641",
"%X c #D08749",
"&X c #D48B4B",
"*X c #C7914D",
"=X c #D09142",
"-X c #DE8359",
";X c #CA9D54",
":X c #D69855",
">X c #D39C59",
",X c #E1825C",
"<X c #C4A542",
"1X c #C5AA47",
"2X c #CAAD4D",
"3X c #C7B847",
"4X c #CAAD53",
"5X c #D1A557",
"6X c #DE9364",
"7X c #E29367",
/* pixels */
"z.z.z.z.z.z.z.z.b.V.%X6X#Xg.d.^.P.>X,X7.7.7X1XS.N.N.$X>X,X7.7.7X1XZ.g.q.P.>X-X%XV.b.z.z.z.z.b.b.x.x.",
"b.b.b.b.b.b.b.b.d.l.{ 4.L.g.0.j.P.R.X.[ [ 4.W.S.~.~.U.=XX.| [ 4.W.S.g.q.K.R.X.{ l.b.b.z.z.b.c.b.x.x.",
"b.b.b.z.z.z.z.z.d.l.S &.D.g.0.j.U.Y.] ` ` *.Q.'.).).!.R.] ` ` *.E.J.g.q.K.T.] S l.b.z.z.z.z.b.b.x.x.",
"z.z.z.d.d.d.d.d.z.k.A @.D.F.C.|.3XT.G C C @.<XoX X X3XT.G C C @.<XoXC.s.#X_ J Z a.f.z.z.z.z.z.z.x.x.",
"z.z.z.d.d.d.d.d.d.i.p Q OX@X+X4X5X( x 4 5 Q *X2X1X2X5X( x 4 5 Q *X4X+X+X;X( x i i.f.d.d.d.d.d.z.x.x.",
"b.b.b.z.z.z.z.z.r.u.Z J | R I T | ' z 2 j D | } I T | ' z 2 j D | } I T | ' m 8 9.d.d.d.d.d.d.z.x.x.",
"b.b.b.b.b.b.b.b.d.p.n g h d 3 d h h q > 5 d h d 3 d h h q > 5 d h d 3 d h h 9 , 9.d.z.d.d.z.z.z.x.x.",
"z.z.z.z.z.z.z.z.c.k.M 0 5 a d j 5 7 f d j 5 5 a d h 5 5 d d j 5 7 s d h 5 7 g b i.f.z.z.z.z.b.b.x.x.",
"n.n.z.d.d.z.z.n.z.k.N 0 5 k z z 4 4 h z v 4 5 j v v 4 5 k z z 4 4 h z v 4 5 l N p.f.d.z.n.M.b.z.b.b.",
"z.z.d.r.r.z.z.z.x.p.b 1 2 4 2 > = = : < 5 < 2 4 4 7 < 2 4 2 > = = : < 5 < 2 0 i i.d.d.z.z.b.b.b.b.b.",
"z.z.z.z.x.x.b.b.m.p.Z V V l ; o . . . # h v V z 2 j v V l ; o . . . # h v V z u 9.d.z.d.r.d.d.z.x.x.",
"x.b.c.c.c.c.c.b.g.y.n g f 5 = .       + 4 d f 7 > 5 d f 5 = .       + 4 d f 9 , 9.d.b.z.d.r.r.d.x.x.",
"d.d.z.z.z.z.d.r.0.y.M 9 7 d 2 O       + 7 4 7 f d j 5 7 d 2 O       + 7 4 7 d b 9.d.n.M.b.z.z.b.c.c.",
"q.e.e.e.e.e.q.q.q.u.Z 0 5 h d +       + d 4 5 j v v 4 5 h d +       + d 4 5 k N 8.q.r.h.v.h.h.h.d.d.",
"0.0.q.q.e.e.e.e.m.l.n 2 2 4 > o       + 2 < 2 4 4 7 < 2 4 > o       + 2 < 2 0 i 8.0.q.q.e.e.e.e.9.9.",
"w.w.t.g.B.B.B.B.].A.A V V l - .       @ f v V z 2 j v V l - .       @ f v V z u s.B.t.0.0.0.0.9.w.w.",
"Z.M.N./././.(.`._.A.M g f 5 = .       + 4 d f 7 > 5 d f 5 = .       + 4 d f 9 u j.(.M.d.f.m.j.9.q.i.",
"Z.N.~._._._._.'._.A.N 9 7 d 2 O       + 5 4 7 f d j 5 7 a 1 o       + 7 4 7 g n V.`.(.M.N.`.^.j.j.m.",
"Z.Z.(._.[._.'.XX'.A.H q 9 h d @ . . X $ d 6 7 k v v 6 9 k d $ X . . @ d 6 9 m H A. X`.(.).XX'.N.Z.Z.",
"H.H.S._.[._.'..X.XG.U t e 6 < % $ & * * y r e 6 4 7 w r y y * * & # # 2 w r L U G.oX X)._.[._.S.H.H.",
"%X:XI.'.[._.oX5X&X%X>.6.) B 2 s W -.-.=.=.:.) B 2 j ~ -.-.=.=.:.) c 2 j ~ -.;.>.%X>X3X'._.[.oX1X&X%X",
"[ 4.Q.XX}._.!.=XX.[ ] ,./ x > 4 ! +...' ' ,./ x > 4 ! +...' ] <./ x > 4 ! +...' [ 4.Q.XX}.{.!.R.X.[ ",
"` *.W.XX[.).U.R.] ` ` $.^ B a s ~ O.] ` ` $.^ B a s ~ O.] ` ` $.^ B a s ~ O.] ` ` *.Q.XX'.`.$XR.] ` ",
"C @.W.oX X`.$XT.G C C o.#. .K K ,.+.G C C o.#. .K K ,.+.G C C o.#. .K K ,.+.G C C @.<X.XJ.H.#X%.G V ",
"7 Q *X4X#X<X;X( x 4 5 E 2.5.1.3.7.) x 4 5 E 2.5.1.3.7.) x 4 5 E 2.5.1.3.7.) x 4 5 Q *X2X#X2X5X( x 2 ",
"V F | } I T | ' z 2 j D | } P Y | ' z 2 j D | } P Y | ' z 2 j D | } P Y | ' z 2 j D | } I T | ' z < ",
"h f h d 3 d h h q > 5 d h d 3 d h h q > 5 d h d 3 d h h q > 5 d h d 3 d h h q > 5 d h d 3 d h h 7 : ",
"l 5 5 a d h 5 5 d d j 5 5 a d h 5 5 d d j 5 5 a d j 5 5 d d j 5 5 a d h 5 5 d d j 5 5 a d h 5 7 d d ",
"v 4 5 j v v 4 5 j v v 4 5 j v v 4 5 j v v 4 4 j z z 4 4 k v v 4 5 j v v 4 5 j v v 4 5 j v v 4 5 k v ",
"a 2 2 4 4 7 < 2 4 4 7 < 2 4 4 7 < 2 4 4 7 < > > > > - > 4 4 7 < 2 4 4 7 < 2 4 4 7 < 2 4 4 7 < 2 4 4 ",
"V V V z 2 j v V z 2 j v V z 2 j v V z 2 j 9 - @ . . + - 4 2 j v V z 2 j v V z 2 j v V z 2 j v V l < ",
"h f f 7 > 5 d f 7 > 5 d f 7 > 5 d f 7 > 2 = + .       + % ; 5 d f 7 > 5 d f 7 > 5 d f 7 > 5 d f 5 : ",
"l 5 7 f d j 5 7 f d j 5 7 f d j 5 7 f d > @             + ; f 5 7 f d j 5 7 f d j 5 7 f d j 5 7 f d ",
"v 4 5 j v v 4 5 j v v 4 5 j v v 4 5 j l = o             o = l 4 5 j v v 4 5 j v v 4 5 j v v 4 5 k v ",
"a 2 2 4 4 7 < 2 4 4 7 < 2 4 4 7 < 2 4 > +                 @ 2 < 2 4 4 7 < 2 4 4 7 < 2 4 4 7 < 2 4 4 ",
"V V V z 2 j v V z 2 j v V z 2 j v V l - .                 @ f v V z 2 j v V z 2 j v V z 2 j v V l < ",
"h f f 7 > 5 d f 7 > 5 d f 7 > 5 d f 5 = .                 + 4 d f 7 > 5 d f 7 > 5 d f 7 > 5 d f 5 : ",
"l 5 7 f d j 5 7 f d j 5 7 f d j 5 7 d 2 O                 + 7 4 7 f d j 5 7 f d j 5 7 f d j 5 7 f d ",
"v 4 5 j v v 4 5 j v v 4 5 j v v 4 5 h d +                 + d 4 5 j v v 4 5 j v v 4 5 j v v 4 5 k v ",
"a 2 2 4 4 7 < 2 4 4 7 < 2 4 4 7 < 2 4 > o                 + 2 < 2 4 4 7 < 2 4 4 7 < 2 4 4 7 < 2 4 4 ",
"V V V z 2 j v V z 2 j v V z 2 j v V l - .                 @ f v V z 2 j v V z 2 j v V z 2 j v V l < ",
"h f f 7 > 5 d f 7 > 5 d f 7 > 5 d f 5 = .                 + 4 d f 7 > 5 d f 7 > 5 d f 7 > 5 d f 5 : ",
"l 5 7 f d j 5 7 f d j 5 7 f d j 5 7 d 2 O                 + 7 4 7 f d j 5 7 f d j 5 7 f d j 5 7 f d ",
"v 4 5 j v v 4 5 j v v 4 5 j v v 4 5 h d +                 + d 4 5 j v v 4 5 j v v 4 5 j v v 4 5 k v ",
"a 2 2 4 4 7 < 2 4 4 7 < 2 4 4 7 < 2 4 > o                 + 2 < 2 4 4 7 < 2 4 4 7 < 2 4 4 7 < 2 4 4 ",
"V V V z 2 j v V z 2 j v V z 2 j v V l - .                 @ f v V z 2 j v V z 2 j v V z 2 j v V l < ",
"h f f 7 > 5 d f 7 > 5 d f 7 > 5 d f 5 = .                 + 4 d f 7 > 5 d f 7 > 5 d f 7 > 5 d f 5 : ",
"l 5 7 f d j 5 7 f d j 5 7 f d j 5 7 d 2 O                 + 7 4 7 f d j 5 7 f d j 5 7 f d j 5 7 d d ",
"v 4 4 j v v 4 4 j v v 4 4 j v v 4 4 h d +                 + d 2 4 j v v 4 4 j v v 4 4 j v v 4 4 j z ",
"4 ; : 2 4 4 ; : 2 4 4 ; : 2 4 4 ; : < > O                 O > ; : 2 4 4 ; : 2 4 4 ; : 2 4 4 ; : 2 4 "
};
