/* XPM */
static char * castle_new_xpm[] = {
"50 50 151 2",
"  	c #35A108",
". 	c #309E07",
"+ 	c #319E08",
"@ 	c #299B06",
"# 	c #2E9F07",
"$ 	c #2C9F06",
"% 	c #2A9B06",
"& 	c #2F9C07",
"* 	c #2D9E06",
"= 	c #2E9E07",
"- 	c #FCBCB0",
"; 	c #30A007",
"> 	c #2F9B07",
", 	c #309D07",
"' 	c #30A107",
") 	c #299806",
"! 	c #299906",
"~ 	c #309C07",
"{ 	c #349E08",
"] 	c #2E9807",
"^ 	c #2E9A07",
"/ 	c #2E9F06",
"( 	c #2A9F05",
"_ 	c #38A409",
": 	c #339F08",
"< 	c #2E9D07",
"[ 	c #32A008",
"} 	c #329F07",
"| 	c #2F9A07",
"1 	c #2D9907",
"2 	c #2EA006",
"3 	c #2D9B07",
"4 	c #2D9A07",
"5 	c #2E9907",
"6 	c #2B9D06",
"7 	c #2D9F06",
"8 	c #2D9C06",
"9 	c #319C07",
"0 	c #C84C0C",
"a 	c #309F07",
"b 	c #33A407",
"c 	c #2E9E06",
"d 	c #2C9C06",
"e 	c #2D9D06",
"f 	c #2EA106",
"g 	c #31A407",
"h 	c #2B9B06",
"i 	c #329F08",
"j 	c #2E9B07",
"k 	c #2B9A06",
"l 	c #2B9C06",
"m 	c #31A107",
"n 	c #35A008",
"o 	c #31A007",
"p 	c #36A408",
"q 	c #329B08",
"r 	c #37A309",
"s 	c #2C9D06",
"t 	c #319F07",
"u 	c #319D07",
"v 	c #329E08",
"w 	c #2C9B06",
"x 	c #339E08",
"y 	c #329C08",
"z 	c #2DA106",
"A 	c #2FA206",
"B 	c #31A207",
"C 	c #2F9D07",
"D 	c #33A507",
"E 	c #2D9C07",
"F 	c #319E07",
"G 	c #36A109",
"H 	c #35A308",
"I 	c #2B9706",
"J 	c #2FA007",
"K 	c #339D08",
"L 	c #35A208",
"M 	c #2F9F07",
"N 	c #359E08",
"O 	c #329D08",
"P 	c #32A108",
"Q 	c #339C08",
"R 	c #000000",
"S 	c #32A107",
"T 	c #33A008",
"U 	c #2D9D07",
"V 	c #32A207",
"W 	c #32A007",
"X 	c #309B07",
"Y 	c #299A06",
"Z 	c #319C08",
"` 	c #2C9A07",
" .	c #2A9806",
"..	c #299606",
"+.	c #289606",
"@.	c #2E9C07",
"#.	c #319D08",
"$.	c #2F9E07",
"%.	c #279A05",
"&.	c #309B08",
"*.	c #2C9A06",
"=.	c #34A208",
"-.	c #299C05",
";.	c #34A108",
">.	c #33A308",
",.	c #319B08",
"'.	c #34A508",
").	c #299D05",
"!.	c #2FA106",
"~.	c #32A307",
"{.	c #34A408",
"].	c #2CA006",
"^.	c #30A207",
"/.	c #36A208",
"(.	c #2F9F06",
"_.	c #2EA306",
":.	c #2DA006",
"<.	c #2B9E06",
"[.	c #34A308",
"}.	c #2D9B06",
"|.	c #349D08",
"1.	c #34A008",
"2.	c #31A307",
"3.	c #2EA007",
"4.	c #2FA407",
"5.	c #30A506",
"6.	c #2B9906",
"7.	c #299B05",
"8.	c #2C9806",
"9.	c #359D09",
"0.	c #299F05",
"a.	c #279B05",
"b.	c #2E9C06",
"c.	c #2A9906",
"d.	c #269805",
"e.	c #289706",
"f.	c #2D9A06",
"g.	c #2A9A06",
"h.	c #33A208",
"i.	c #2DA206",
"j.	c #2C9E06",
"k.	c #37A408",
"l.	c #36A008",
"m.	c #35A508",
"n.	c #2A9C06",
"o.	c #36A508",
"p.	c #33A108",
"q.	c #33A307",
"r.	c #2B9806",
"s.	c #2CA106",
"t.	c #2C9906",
"  . + @ # $ % & * = - - - ; > , ' - - - - - - ) ! ~ { - - - - - ] ^ & / ( - - - _ : < [ { } | 1 # 2 ",
"3 4 5 ~ [ 6 7 * 8 9 0 0 - a 9 2 b - 0 0 0 0 - c d 3 & - 0 0 0 0 d e f g 2 0 0 0 ; [ h 5 : b i j 3 < ",
"k a l m n o / * p o 0 0 - q r s a - 0 0 0 0 - t s d u - 0 0 0 0 o v w , x 0 0 0 3 y @ z A < x B } C ",
"B D / / E & F ; G 3 0 0 - v H F I - 0 0 0 0 - . h C , - 0 0 0 0 J a a x K 0 0 0 ^ L ' < ; M o t N O ",
"B P t C k w Q F i a R R - - - - - - R R R R - - - - - - R R R R - - - - - R R R a B S T U [ ' h V W ",
"S , : C ; m a = M a 0 0 0 0 0 0 0 0 0 R 0 0 0 0 R 0 0 0 0 R 0 0 0 0 R 0 0 0 0 R C / X & Y 3 a Y 1 Z ",
"F > O | ` C X  ...w 0 0 0 0 0 0 0 0 0 R 0 0 0 0 R 0 0 0 0 R 0 0 0 0 R 0 0 0 0 R X 8 i +.) @.#.Y $.' ",
"%.l 2 [ w E & &.*.t 0 0 R 0 0 0 0 R 0 0 0 0 R 0 0 0 0 R 0 0 0 0 0 0 0 0 0 0 0 0 =.$.Z < * > q t t = ",
"-.C = ;.$.e 7 L >.;.0 0 R 0 0 0 0 R 0 0 0 0 R 0 0 0 0 R 0 0 0 0 0 0 0 0 0 0 0 0 ;.8 & L [ . T >.>.3 ",
"e 3 ,.S './ , O : u R R R R R R R R R R R R R R R R R R R R R R R R R R R R R R F ).!.C ^ ~.{.8 $.v ",
"].h . ^.{.V /.t : 4 0 0 0 0 0 R R R R R 0 0 0 0 R 0 0 0 0 R R R R R R 0 0 0 0 R / (.C . 7 _.T ; P M ",
"6 * a @.~ V , . , L 0 0 0 0 0 R R R R R 0 0 0 0 R 0 0 0 0 R R R R R R 0 0 0 0 R a . > $.:.<.a P [.7 ",
"4 j }.Z i |.: 1.a 2.0 0 R 0 0 R R R R R 0 0 R 0 0 0 0 R 0 0 R R R R R 0 0 0 0 0 j C 3.w a 4.5.# : a ",
"6.l ` > m , L p [.B 0 0 R 0 0 R R R R R 0 0 R 0 0 0 0 R 0 0 R R R R R 0 0 0 0 0 7.= @.7.$.1 8.1 9.v ",
"0.a.s 2 < b.. &.X T R R R R R R R R R R R R R R R R R R R R R R R R R R R R R R c.~ 9 J $.o d t n : ",
"d.e.# 6 f.c M = % , 0 0 0 0 0 R R R R R 0 0 0 0 R 0 0 0 0 R R R R R R 0 0 0 0 R h ^.C 9.1.~.l O j q ",
") 8 =.C & C $.u & g.0 0 0 0 0 R R R R R 0 0 0 0 R 0 0 0 0 R R R R R R 0 0 0 0 R h & < #.O { v : . a ",
"s o . , m =.i > h.i.0 0 R 0 0 R R R R R 0 0 R 0 0 0 0 R 0 0 R R R R R 0 0 0 0 0 j.& i M m k./.B b t ",
"B a . i > l.m.h.{.m 0 0 R 0 0 R R R R R 0 0 R 0 0 0 0 R 0 0 R R R R R 0 0 0 0 0 n.t n #.=.o.p.M h.O ",
"9 9 7 q.Z K r.j v + R R R R R R R R R R R R R R R R R R R R R R R R R R R R R R h $.s.h.u . j j + , ",
"0 0 - F k > ) - 0 0 0 0 - 0 0 0 0 - 0 0 0 0 - 0 R 0 0 - 0 0 0 0 0 0 R 0 0 0 0 0 0 0 @ 3 > v w 0 0 0 ",
"0 0 - ^ 6.k 6 - 0 0 0 0 - 0 0 0 0 - 0 0 0 0 - 0 R 0 0 - 0 0 0 0 0 0 R 0 0 0 0 0 0 0 1 j , K @.0 0 0 ",
"0 0 - t.; w d - 0 0 0 0 - 0 0 0 0 - 0 0 0 0 - 0 0 0 0 - 0 0 0 0 0 0 0 0 0 0 0 0 0 0 @.M j.= t 0 0 0 ",
"0 0 - e {.M g - 0 0 0 0 - 0 0 0 0 - 0 0 0 0 - 0 0 0 0 - 0 0 0 0 0 0 0 0 0 0 0 0 0 0 ' s h O + 0 0 0 ",
"R R - - - - - - R R R R - - - - - - R R R R - - - - - - R R R R - - - - - R R R R R - - - - - R R R ",
"0 0 0 0 0 0 0 0 0 0 0 0 0 0 0 0 0 0 0 R 0 0 0 0 R 0 0 0 0 R 0 0 0 0 R 0 0 0 0 R 0 0 0 0 R 0 0 0 0 R ",
"0 0 0 0 0 0 0 0 0 0 0 0 0 0 0 0 0 0 0 R 0 0 0 0 R 0 0 0 0 R 0 0 0 0 R 0 0 0 0 R 0 0 0 0 R 0 0 0 0 R ",
"0 0 R 0 0 0 0 R 0 0 0 0 R 0 0 0 0 R 0 0 0 0 R 0 0 0 0 R 0 0 0 0 0 0 0 0 0 0 0 0 0 0 0 0 0 0 0 0 0 0 ",
"0 0 R 0 0 0 0 R 0 0 0 0 R 0 0 0 0 R 0 0 0 0 R 0 0 0 0 R 0 0 0 0 0 0 0 0 0 0 0 0 0 0 0 0 0 0 0 0 0 0 ",
"R R R R R R R R R R R R R R R R R R R R R R R R R R R R R R R R R R R R R R R R R R R R R R R R R R ",
"0 0 0 0 0 0 0 0 0 0 0 0 0 0 0 0 0 0 0 R 0 0 R R R R R R 0 R 0 0 0 0 R 0 0 0 0 R 0 0 0 0 R 0 0 0 0 R ",
"0 0 0 0 0 0 0 0 0 0 0 0 0 0 0 0 0 0 0 R 0 R R R R R R R R R 0 0 0 0 R 0 0 0 0 R 0 0 0 0 R 0 0 0 0 R ",
"0 0 R 0 0 0 0 R 0 0 0 0 R 0 0 0 0 R 0 0 0 R R R R R R R R 0 0 0 0 0 0 0 0 0 0 0 0 0 0 0 0 0 0 0 0 0 ",
"0 0 R 0 0 0 0 R 0 0 0 0 R 0 0 0 0 R 0 0 R R R R R R R R R R 0 0 0 0 0 0 0 0 0 0 0 0 0 0 0 0 0 0 0 0 ",
"R R R R R R R R R R R R R R R R R R R R R R R R R R R R R R R R R R R R R R R R R R R R R R R R R R ",
"0 0 0 0 0 0 0 0 0 0 0 0 0 0 0 0 0 0 0 R R R R R R R R R R R 0 0 0 0 R 0 0 0 0 R 0 0 0 0 R 0 0 0 0 R ",
"0 0 0 0 0 0 0 0 0 0 0 0 0 0 0 0 0 0 0 R R R R R R R R R R R 0 0 0 0 R 0 0 0 0 R 0 0 0 0 R 0 0 0 0 R ",
"0 0 R 0 0 0 0 R 0 0 0 0 R 0 0 0 0 R 0 0 R R R R R R R R R R 0 0 0 0 0 0 0 0 0 0 0 0 0 0 0 0 0 0 0 0 ",
"0 0 R 0 0 0 0 R 0 0 0 0 R 0 0 0 0 R 0 0 R R R R R R R R R R 0 0 0 0 0 0 0 0 0 0 0 0 0 0 0 0 0 0 0 0 ",
"R R R R R R R R R R R R R R R R R R R R R R R R R R R R R R R R R R R R R R R R R R R R R R R R R R ",
"0 0 0 0 0 0 0 0 0 0 0 0 0 0 0 0 0 0 0 R R R R R R R R R R R 0 0 0 0 R 0 0 0 0 R 0 0 0 0 R 0 0 0 0 R ",
"0 0 0 0 0 0 0 0 0 0 0 0 0 0 0 0 0 0 0 R R R R R R R R R R R 0 0 0 0 R 0 0 0 0 R 0 0 0 0 R 0 0 0 0 R ",
"0 0 R 0 0 0 0 R 0 0 0 0 R 0 0 0 0 R 0 0 R R R R R R R R R R 0 0 0 0 0 0 0 0 0 0 0 0 0 0 0 0 0 0 0 0 ",
"0 0 R 0 0 0 0 R 0 0 0 0 R 0 0 0 0 R 0 0 R R R R R R R R R R 0 0 0 0 0 0 0 0 0 0 0 0 0 0 0 0 0 0 0 0 ",
"R R R R R R R R R R R R R R R R R R R R R R R R R R R R R R R R R R R R R R R R R R R R R R R R R R ",
"0 0 0 0 0 0 0 0 0 0 0 0 0 0 0 0 0 0 0 R R R R R R R R R R R 0 0 0 0 R 0 0 0 0 R 0 0 0 0 R 0 0 0 0 R ",
"0 0 0 0 0 0 0 0 0 0 0 0 0 0 0 0 0 0 0 R R R R R R R R R R R 0 0 0 0 R 0 0 0 0 R 0 0 0 0 R 0 0 0 0 R ",
"0 0 R 0 0 0 0 R 0 0 0 0 R 0 0 0 0 R 0 0 R R R R R R R R R R 0 0 0 0 0 0 0 0 0 0 0 0 0 0 0 0 0 0 0 0 ",
"0 0 R 0 0 0 0 R 0 0 0 0 R 0 0 0 0 R 0 0 R R R R R R R R R R 0 0 0 0 0 0 0 0 0 0 0 0 0 0 0 0 0 0 0 0 ",
"R R R R R R R R R R R R R R R R R R R R R R R R R R R R R R R R R R R R R R R R R R R R R R R R R R "};
