/* XPM */
static char * coin_xpm[] = {
"50 50 231 2",
"  	c #35A108",
". 	c #309E07",
"+ 	c #319E08",
"@ 	c #299B06",
"# 	c #2E9F07",
"$ 	c #2C9F06",
"% 	c #2A9B06",
"& 	c #2F9C07",
"* 	c #2D9E06",
"= 	c #2E9E07",
"- 	c #34A308",
"; 	c #33A408",
"> 	c #32A307",
", 	c #30A007",
"' 	c #2F9B07",
") 	c #309D07",
"! 	c #30A107",
"~ 	c #319E07",
"{ 	c #2D9F06",
"] 	c #2C9C06",
"^ 	c #34A008",
"/ 	c #2B9C06",
"( 	c #2D9807",
"_ 	c #299806",
": 	c #299906",
"< 	c #309C07",
"[ 	c #349E08",
"} 	c #3BA50A",
"| 	c #2D9C06",
"1 	c #2D9C07",
"2 	c #2E9907",
"3 	c #2E9807",
"4 	c #2E9A07",
"5 	c #2E9F06",
"6 	c #2A9F05",
"7 	c #31A107",
"8 	c #38A409",
"9 	c #339F08",
"0 	c #2E9D07",
"a 	c #32A008",
"b 	c #329F07",
"c 	c #2F9A07",
"d 	c #2D9907",
"e 	c #2EA006",
"f 	c #2D9B07",
"g 	c #2D9A07",
"h 	c #2B9D06",
"i 	c #319C07",
"j 	c #2E9C07",
"k 	c #2E9B07",
"l 	c #2F9F07",
"m 	c #309F07",
"n 	c #33A407",
"o 	c #2F9E07",
"p 	c #279605",
"q 	c #359E08",
"r 	c #2B9B06",
"s 	c #2E9E06",
"t 	c #39A309",
"u 	c #2D9D06",
"v 	c #2EA106",
"w 	c #31A407",
"x 	c #329F08",
"y 	c #2B9A06",
"z 	c #35A008",
"A 	c #31A007",
"B 	c #36A408",
"C 	c #309B07",
"D 	c #329B08",
"E 	c #37A309",
"F 	c #2C9D06",
"G 	c #319D08",
"H 	c #2B9806",
"I 	c #2A9906",
"J 	c #319F07",
"K 	c #32A208",
"L 	c #37A708",
"M 	c #319D07",
"N 	c #35A208",
"O 	c #33A108",
"P 	c #329E08",
"Q 	c #2C9B06",
"R 	c #339E08",
"S 	c #329C08",
"T 	c #2DA106",
"U 	c #2FA206",
"V 	c #31A207",
"W 	c #2F9D07",
"X 	c #33A507",
"Y 	c #36A109",
"Z 	c #329D08",
"` 	c #35A308",
" .	c #2B9706",
"..	c #2D9D07",
"+.	c #2DA006",
"@.	c #38A309",
"#.	c #359F08",
"$.	c #2FA107",
"%.	c #2FA007",
"&.	c #339D08",
"*.	c #32A108",
"=.	c #339C08",
"-.	c #2E9B06",
";.	c #2EA007",
">.	c #34A108",
",.	c #33A308",
"'.	c #3AA409",
").	c #3AA609",
"!.	c #33A107",
"~.	c #32A107",
"{.	c #33A008",
"].	c #32A207",
"^.	c #32A007",
"/.	c #34A408",
"(.	c #2B9E06",
"_.	c #31A307",
":.	c #339B08",
"<.	c #329A08",
"[.	c #33A208",
"}.	c #37A508",
"|.	c #34A208",
"1.	c #359D08",
"2.	c #319B07",
"3.	c #299A06",
"4.	c #319C08",
"5.	c #2C9A07",
"6.	c #2A9806",
"7.	c #299606",
"8.	c #30A207",
"9.	c #2A9F06",
"0.	c #289A05",
"a.	c #FC9838",
"b.	c #000000",
"c.	c #289606",
"d.	c #279A05",
"e.	c #309B08",
"f.	c #2C9A06",
"g.	c #2A9606",
"h.	c #349F08",
"i.	c #299C05",
"j.	c #319B08",
"k.	c #34A508",
"l.	c #36A708",
"m.	c #32A407",
"n.	c #359E09",
"o.	c #299D05",
"p.	c #2FA106",
"q.	c #2CA006",
"r.	c #36A208",
"s.	c #2C9E06",
"t.	c #2F9F06",
"u.	c #2EA306",
"v.	c #C84C0C",
"w.	c #2D9B06",
"x.	c #349D08",
"y.	c #36A608",
"z.	c #33A207",
"A.	c #2A9A06",
"B.	c #2FA407",
"C.	c #30A506",
"D.	c #2B9906",
"E.	c #36A308",
"F.	c #299B05",
"G.	c #2C9806",
"H.	c #359D09",
"I.	c #299F05",
"J.	c #279B05",
"K.	c #2E9C06",
"L.	c #37A109",
"M.	c #269805",
"N.	c #289706",
"O.	c #2D9A06",
"P.	c #2DA206",
"Q.	c #37A408",
"R.	c #36A008",
"S.	c #35A508",
"T.	c #289C05",
"U.	c #2A9C06",
"V.	c #36A508",
"W.	c #33A307",
"X.	c #2CA106",
"Y.	c #2C9906",
"Z.	c #35A109",
"`.	c #36A108",
" +	c #2D9F07",
".+	c #2E9D06",
"++	c #319A08",
"@+	c #37A009",
"#+	c #38A109",
"$+	c #369F09",
"%+	c #379E09",
"&+	c #299706",
"*+	c #289905",
"=+	c #2A9E06",
"-+	c #279805",
";+	c #309A07",
">+	c #30A307",
",+	c #289906",
"'+	c #309A08",
")+	c #2C9807",
"!+	c #2A9706",
"~+	c #2B9606",
"{+	c #2FA306",
"]+	c #299A05",
"^+	c #2B9F06",
"/+	c #2BA006",
"(+	c #309908",
"_+	c #30A407",
":+	c #35A408",
"<+	c #389E09",
"[+	c #37A209",
"}+	c #2BA305",
"|+	c #38A509",
"1+	c #2A9D06",
"2+	c #319F08",
"3+	c #359F09",
"4+	c #37A509",
"5+	c #259B05",
"6+	c #32A408",
"7+	c #2DA007",
"8+	c #379F09",
"9+	c #349C09",
"0+	c #36A009",
"a+	c #349C08",
"b+	c #2EA206",
"c+	c #37A308",
"d+	c #369E09",
"e+	c #289E05",
"f+	c #2A9B05",
"g+	c #309E08",
"h+	c #36A309",
"  . + @ # $ % & * = - ; > , ' ) ! ~ { ] ^ / ( _ : < [ } | / 1 2 3 4 & 5 6 7 < + 8 9 0 a [ b c d # e ",
"f g 2 < a h { * | i j k l m i e n o j p q r j s ] f & t a : 9 < ] u v w e f . = , a r 2 9 n x k f 0 ",
"y m / 7 z A 5 * B A ' C D D E F m G H I J K L J F ] M N O & 9 a A P Q ) R c = u f S @ T U 0 R V b W ",
"V X 5 5 1 & ~ , Y f g P Z P ` ~  .2 .., +.O @.. r W ) #.< Z - $.%.m m R &.P F o 4 N ! 0 , l A J q Z ",
"V *.J W y Q =.~ x m Q R Z o o ' -.o j O ;.~ M o l   ^ >.P 7 m 9 ,.W '.).!.o = Z m V ~.{...a ! r ].^.",
"~.) 9 W , 7 m = l m ) c x /.b j (.O _., $.~ :.<.j [.> }.9 |.1.2.x Z q ,.- k =.#.W 5 C & 3.f m 3.d 4.",
"~ ' Z c 5.W C 6.7.Q _.8.{ |.8.9.0.a.a.a.a.a.a.a.a.a.a.a.b.b.b.b.b.b.A 7 z c 2 S C | x c._ j G 3.o ! ",
"d./ e a Q 1 & e.f.J k f.g.c l # j a.a.a.a.a.a.a.a.a.a.a.b.b.b.b.b.b.S ' h.P F $.|.o 4.0 * ' D J J = ",
"i.W = >.o u { N ,.>.l k ) G 4.&.M a.a.a.a.a.a.a.a.a.a.a.b.b.b.b.b.b.< = * m ! ].>.| & N a . {.,.,.f ",
"u f j.~.k.5 ) Z 9 M * N l.m.a.a.a.a.a.a.a.a.a.a.a.a.a.a.a.a.a.b.b.b.b.b.Q Z j.n.~ o.p.W 4 > /.| o P ",
"q.r . 8./.].r.J 9 g d g &.s.a.a.a.a.a.a.a.a.a.a.a.a.a.a.a.a.a.b.b.b.b.b.f Z W . 5 t.W . { u.{., *.l ",
"h * m j < ].) . ) N n $.F / a.a.a.a.a.a.v.v.v.v.v.a.a.a.a.a.a.b.b.b.b.b.N M F * m . ' o +.(.m *.- { ",
"g k w.4.x x.9 ^ m _.y.N 0 w.a.a.a.a.a.a.v.v.v.v.v.a.a.a.a.a.a.b.b.b.b.b.z.< k A.k W ;.Q m B.C.# 9 m ",
"D./ 5.' 7 ) N B - V E.x < P a.a.a.a.a.a.v.v.v.v.v.a.a.a.a.a.a.b.b.b.b.b.& . h.k F.= j F.o d G.d H.P ",
"I.J.F e 0 K.. e.C {.L.- a.a.a.a.a.v.v.v.a.a.a.a.a.b.b.b.a.a.a.a.a.a.b.b.b.b.b.0 I < i %.o A ] J z 9 ",
"M.N.# h O.s l = % ) [ ^ a.a.a.a.a.v.v.v.a.a.a.a.a.b.b.b.a.a.a.a.a.a.b.b.b.b.b.u r 8.W H.^ > / Z k D ",
"_ | |.W & W o M & A.g j.a.a.a.a.a.v.v.v.a.a.a.a.a.b.b.b.a.a.a.a.a.a.b.b.b.b.b.0 r & 0 G Z [ P 9 . m ",
"F A . ) 7 |.x ' [.P.i.. a.a.a.a.a.v.v.v.a.a.a.a.a.b.b.b.a.a.a.a.a.a.b.b.b.b.b.. s.& x l 7 Q.r.V n J ",
"V m . x ' R.S.[./.7 T.f.a.a.a.a.a.v.v.v.a.a.a.a.a.b.b.b.a.a.a.a.a.a.b.b.b.b.b.o U.J z G |.V.O l [.Z ",
"i i { W.4.&.H k P + * o a.a.a.a.a.v.v.v.a.a.a.a.a.b.b.b.a.a.a.a.a.a.b.b.b.b.b., r o X.[.M . k k + ) ",
"z E.A ~ y ' _ / 4 . ~.R a.a.a.a.a.v.v.v.a.a.a.a.a.b.b.b.a.a.a.a.a.a.b.b.b.b.b.4 g 1 @ f ' P Q | 4 d ",
"4 G f 4 D.y h Q 4 D.f >.a.a.a.a.a.v.v.v.a.a.a.a.a.b.b.b.a.a.a.a.a.a.b.b.b.b.b.< f.5.d k ) &.j 9 x < ",
"W ) g Y., Q ] A.. j Q a a.a.a.a.a.v.v.v.a.a.a.a.a.b.b.b.a.a.a.a.a.a.b.b.b.b.b.V.o = j l s.= J P G = ",
"Z.N 7 u /.l w , R |.`.o a.a.a.a.a.v.v.v.a.a.a.a.a.b.b.b.a.a.a.a.a.a.b.b.b.b.b.a ~ * ! F r Z + i w.W ",
"S P x u ].]., 0 [ &.[ ! a.a.a.a.a.v.v.v.a.a.a.a.a.b.b.b.a.a.a.a.a.a.b.b.b.b.b.4 l J . & g 4 k k . A ",
"' u . | A m & f.) J (.[.a.a.a.a.a.v.v.v.a.a.a.a.a.b.b.b.a.a.a.a.a.a.b.b.b.b.b.Q ..% ) P >.,  +*.R j.",
".+o U.# ++M A /.- {.[.V a.a.a.a.a.v.v.v.a.a.a.a.a.b.b.b.a.a.a.a.a.a.b.b.b.b.b.D.. q.e &.=.{.. h.[ f ",
"] S k $ 4.h.@+#+- 7 O A a.a.a.a.a.v.v.v.a.a.a.a.a.b.b.b.a.a.a.a.a.a.b.b.b.b.b.o z &.& 4.2.b z m %.e ",
"t.f.c j J A $+%+x.= U.A.a.a.a.a.a.v.v.v.a.a.a.a.a.b.b.b.a.a.a.a.a.a.b.b.b.b.b.r.^.~ . m P `.{.{ ~.A ",
"7 t.F . i d >.` [.4.&+A.a.a.a.a.a.v.v.v.a.a.a.a.a.b.b.b.a.a.a.a.a.a.b.b.b.b.b.7 . # s ~ C R.J A./ . ",
"*+r.*.9 = W ^.|.=+l 0 ] a.a.a.a.a.v.v.v.a.a.a.a.a.b.b.b.a.a.a.a.a.a.b.b.b.b.b.f.l { W S Z ^ < F s.w.",
"-+' 4 ;+>+8.J 4 ,+o W {.a.a.a.a.a.v.v.v.a.a.a.a.a.b.b.b.a.a.a.a.a.a.b.b.b.b.b.< ~ o A /.- P , P.A *.",
"A 1 G l J K.J ) c ) | O a.a.a.a.a.v.v.v.a.a.a.a.a.b.b.b.a.a.a.a.a.a.b.b.b.b.b.f.U.s.|.x &.) T d '+/ ",
"# 0 , ..y Y.7 V   & C R a.a.a.a.a.v.v.v.a.a.a.a.a.b.b.b.a.a.a.a.a.a.b.b.b.b.b.-+)+!+Z l %.u ! &.;+c.",
"o = 0 W . % x = W = . b a.a.a.a.a.v.v.v.a.a.a.a.a.b.b.b.a.a.a.a.a.a.b.b.b.b.b.(.A = ] ] o s.*.J W 2 ",
"E.D ~+G ` F k.x _ 1 # * a.a.a.a.a.v.v.v.a.a.a.a.a.b.b.b.a.a.a.a.a.a.b.b.b.b.b.) 8._.F % ) 0 ) k * J ",
"{+~ |.~.h.A |.1.u # 0 u = F a.a.a.a.a.a.b.b.b.b.b.a.a.a.a.a.a.b.b.b.b.b.l ]+' h.F +.^+/+= C g.3.u 9 ",
"& g O . J W (+R l T ^ W n F a.a.a.a.a.a.b.b.b.b.b.a.a.a.a.a.a.b.b.b.b.b.W a 0 G < +.# 0 4 x ^.q.U.2 ",
"F u 5 d D.)+D W (.F `.b G %.a.a.a.a.a.a.b.b.b.b.b.a.a.a.a.a.a.b.b.b.b.b.j ^ ! s.! , 4.Y c < 9 ..f.P ",
"_+m 0 o . * z . D.I s   k . a.a.a.a.a.a.a.a.a.a.a.a.a.a.a.a.a.b.b.b.b.b.%.u H f.. e.<.9 +.O c )+9 :+",
"A S F.$   < 0 ] +.W Y.9 < ) a.a.a.a.a.a.a.a.a.a.a.a.a.a.a.a.a.b.b.b.b.b.~ / m h.~ m = Q d <+{.$.O [+",
"b h.,+r   F r u A.s.0 1 ^ ^ a.a.a.a.a.a.a.a.a.a.a.a.a.a.a.a.a.b.b.b.b.b.W 6.y k.}++.* ] c t O ~ 9 b ",
"& |.{ 0 Z f.o ,.J s.9.I ~ . a W S a.a.a.a.a.a.a.a.a.a.a.b.b.b.b.b.b.k _ ) z & e 8.m.O J J |+. A Z r ",
"1+O | : >.a 0 j 2+G o.r < A ^ f b a.a.a.a.a.a.a.a.a.a.a.b.b.b.b.b.b.g r (.,.O W P 3+4+# . |.& W x (.",
"^+R ) k G ] h Q Y.4...5+o [ S r > O g ' 9 F.U ;.,.J { M O.Q . . 5.I | l g Q $ | 2 D.6+T 1 J l u Z %.",
"f o 7+M R o.6 7 5 1 &+% %.b l s.8+^ h P m s.].m ! ^.!.A J u ..|.8.$ V 0 ++Q r ] o F 7 e 7 B N | , S ",
"O 8.| b J *+F j $ 5 / W S f 3.W L.>.5 > 7 * . W k x.N J Q _ F _.7 % 4.j m A ].V & ] %.r C #.9+) s {.",
"0+& Y.o 1 i a+< , , , w.5.k f.A.2+1 A . ) ) ) W I w.G &.b+0 < x Z / l C A $.s.9 S M.* ] D.' 2 Z M 0 ",
"a 0 1 y f.:+,.  g d j g F l T 1+. f.Y.Z . c+>.5.Q l | !+m 9 d ' d+y o O ,.%.0 C C ,+o M t.U 7   b , ",
"  = q.e+f+f g+[ w.] x m = 7 %.1 y M j P ( i a+% o >.[.$ l o $ A.h.< '+Y.) 4.Z m 8 O = > ! W h+:+h.' "};
