/* XPM */
static char *f9c264dbf32b46a4f0f1d950323cffa0Z6G8WFFFI5xUGwPM[] = {
/* columns rows colors chars-per-pixel */
"50 50 151 2 ",
"   c #6D9400",
".  c #739503",
"X  c #759C01",
"o  c #7A9E01",
"O  c #73960B",
"+  c #779809",
"@  c #7B9C0A",
"#  c #76A000",
"$  c #7BA301",
"%  c #7EAA01",
"&  c #7EA30A",
"*  c #7FA90A",
"=  c #809F03",
"-  c #82A603",
";  c #83AD01",
":  c #89AE05",
">  c #82A40B",
",  c #85AD0B",
"<  c #8AAC0B",
"1  c #86B102",
"2  c #8AB504",
"3  c #8CB905",
"4  c #87B10B",
"5  c #8BB40A",
"6  c #8DB90B",
"7  c #93B505",
"8  c #95B904",
"9  c #99BD05",
"0  c #93B60B",
"q  c #95B90B",
"w  c #99BB0D",
"e  c #86A614",
"r  c #86A813",
"t  c #8AAB14",
"y  c #8DAF1A",
"u  c #8BB412",
"i  c #8FBB10",
"p  c #89B019",
"a  c #93B513",
"s  c #94BA12",
"d  c #98B910",
"f  c #9BBC13",
"g  c #9DBF13",
"h  c #9ABC14",
"j  c #92B719",
"k  c #9CBF1B",
"l  c #94BB24",
"z  c #9DC107",
"x  c #9EC206",
"c  c #9EC304",
"v  c #9EC208",
"b  c #9CC20B",
"n  c #9EC10B",
"m  c #9FC112",
"M  c #9DC313",
"N  c #9FC41F",
"B  c #9EC21D",
"V  c #A7CE01",
"C  c #A9CE07",
"Z  c #A0C40A",
"A  c #A1C50B",
"S  c #A3C70B",
"D  c #A2C60C",
"F  c #A3C70D",
"G  c #A3C70F",
"H  c #A2C60D",
"J  c #A4C80E",
"K  c #A5C90F",
"L  c #A7CC0D",
"P  c #A5C90D",
"I  c #A8CD0E",
"U  c #AACD0E",
"Y  c #A9CE0E",
"T  c #AECF0C",
"R  c #ADCE0F",
"E  c #AACD0D",
"W  c #ABD207",
"Q  c #AAD00B",
"!  c #ACD00E",
"~  c #ADD30E",
"^  c #ACD20D",
"/  c #A1C412",
"(  c #A1C116",
")  c #A1C317",
"_  c #A4C715",
"`  c #A2C514",
"'  c #AAC611",
"]  c #A2C811",
"[  c #A4C810",
"{  c #A5C911",
"}  c #A6CA10",
"|  c #A7CB11",
" . c #A5C812",
".. c #A6C913",
"X. c #A6CA12",
"o. c #A7CA14",
"O. c #A6CA12",
"+. c #ABCB12",
"@. c #A8CC10",
"#. c #A9CD11",
"$. c #AACF10",
"%. c #A8CC12",
"&. c #A9CD13",
"*. c #AACE12",
"=. c #ABCF13",
"-. c #AAC914",
";. c #A8CB15",
":. c #AACE14",
">. c #ABCF15",
",. c #A9CC16",
"<. c #AACD17",
"1. c #AACE16",
"2. c #AACE14",
"3. c #A0C118",
"4. c #A3C51B",
"5. c #A9C719",
"6. c #A7C91A",
"7. c #A6CA19",
"8. c #ADCC19",
"9. c #ACCD1A",
"0. c #A8CA1C",
"q. c #ABCE1C",
"w. c #AACD1A",
"e. c #B1CD18",
"r. c #A9D011",
"t. c #ACD112",
"y. c #ACD014",
"u. c #ADD115",
"i. c #ACD016",
"p. c #ADD117",
"a. c #AED017",
"s. c #AFD414",
"d. c #ACD116",
"f. c #AFD118",
"g. c #AED218",
"h. c #AFD319",
"j. c #ADD119",
"k. c #B0D513",
"l. c #B0D015",
"z. c #B1D312",
"x. c #B1D41B",
"c. c #A2C722",
"v. c #A3C823",
"b. c #A3C923",
"n. c #AFCA23",
"m. c #A8CD28",
"M. c #B2CD20",
"N. c #ABD420",
"B. c #B2D320",
"V. c #B2D72F",
"C. c #AFD832",
/* pixels */
"1 1 2 2 2 2 2 2 1 3 1 1 1 % - N 0 0 0 q q w w w w w w w w w w w c d > @ 4 6 : p 2 2 2 2 2 2 2 2 2 2 ",
"2 2 2 2 2 2 2 2 1 3 2 5 5 $ X < 0 q q q w w w w m m m m m m m m c d > X 4 2 - , 5 2 2 2 2 2 2 5 2 2 ",
"2 2 2 2 2 1 1 1 1 3 2 5 3 X X < G G [ [ [ [ [ [ [ [ [ [ [ [ [ [ Z h > X : 1 % * 2 2 2 2 2 2 2 2 2 2 ",
"2 2 1 1 ; ; ; ; 1 3 1 ; 1 % ; c.a.a.a.a.a.a.a.a.&.&.&.&.&.&.&.&.&.( > o : 1 % * 2 2 1 1 1 1 2 2 2 2 ",
"2 2 1 1 ; ; ; ; 1 1 ; - 1 % : m.U U U U U U L L t.t.t.t.t.t.t.t.s.7.< $ 2 2 - , 1 1 ; ; ; ; 1 1 2 2 ",
"2 2 2 2 2 1 1 1 % 1 1 2 3 $ $ h &.&.&.&.&.&.&.&.&.&.&.&.&.&.t.=.k.7.< $ 2 2 ; 4 1 1 ; ; ; ; 1 1 2 2 ",
"2 2 2 2 2 2 2 2 1 1 1 2 4 $ o s h.h.h.a.a.a.1.1.1.1.1.1.1.1.1.1.! _ , o 1 3 1 5 2 1 1 1 1 1 1 2 2 2 ",
"1 1 2 2 2 2 2 2 6 6 1 - ; $ - v.1.1.1.;.o.[ [ [ 1.1.1.1.1.1.1.1.Q / - o 1 3 1 u 2 2 2 2 2 2 2 2 2 2 ",
"6 5 1 ; ; 1 1 5 1 3 3 $ X ; b r.h.a.1.&.[ K Z Z b Z G [ &.1.1.1.;.5.a o X ; 7 3 3 1 ; 1 5 0 5 2 4 4 ",
"1 1 ; % % 1 1 1 3 3 , o $ 0 ] U a.a.1.&.[ K K G Z G K &.&.1.1.1.+.q.( : o $ : q 2 1 1 1 2 5 6 6 2 2 ",
"1 1 1 1 1 2 2 2 i , $ o < 4.1.U 1.1.1.&.&.[ [ [ [ [ &.1.1.1.1.1.R l.q.g - X % s 1 1 1 ; % - ; 1 2 2 ",
"2 2 3 6 6 6 3 2 , & @ > a 0.a.R &.&.&.&.&.&.&.&.1.1.a.a.a.1.&.&.R R h.q.0 X X , ; 1 2 1 ; % % ; 2 2 ",
"; 1 1 2 2 ; ; % X @ > a 4.0.>.z.&.&.&.1.1.1.1.1.a.a.a.a.a.a.1.&.R L U x.7.: o o % 1 6 0 5 2 2 3 3 3 ",
"$ $ $ $ $ $ o X $ - a 4.0.;.+.l.1.1.1.1.1.1.1.1.1.1.a.a.a.1.1.&.=.P C a.i.M : $ . # % , , , , , - - ",
"X X o o $ $ $ $ q w ` j.x.+.' e.1.1.1.1.1.1.1.1.&.&.&.1.a.1.1.&.q.>.K C | 7.M 5 $ X X X $ $ $ $ . . ",
"@ @ & > r t y y j.;.&.x.x.+.' 8.a.a.a.a.1.1.1.1.[ &.&.1.1.1.1.1.n.B.&.c S h.N.M l p & X X X . . O O ",
"d 0 9 G K G / 7.1.1.1.&.1.1.1.1.[ [ 1.1.1.1.[ [ 1.1.1.1.&.K K G [ [ [ &.1.a.a.a.[ [ 9 - ; a < . o = ",
"h w n &.&.&.;.q.1.1.1.&.&.1.1.1.a.h.1.1.1.1.h.h.1.1.1.1.&.[ K G [ [ [ &.1.a.a.a.1.1./ 7 w 4.B < < a ",
"h w n 1.a.1.1.j.1.1.&.&.&.&.1.1.h.1.1.1.1.1.1.h.1.1.1.1.&.[ [ K [ [ &.&.1.a.a.a.q.j.;./ o.x.1.q 0 q ",
"a q n &.a.1.;.q.1.1.&.&.&.&.1.1.1.[ G G G G [ 1.1.1.1.1.1.&.[ K [ &.&.&.1.a.i.a.1.h.1.[ &.a.S 8 0 0 ",
"a q n &.a.&.[ 1.1.1.1.&.&.&.1.1.[ G G b b G G [ 1.&.1.1.1.1.&.[ &.&.&.&.1.1.1.1.1.1.1.&.&.r.S 9 w w ",
"h w / a.x.1.o.1.1.1.&.&.&.&.1.1.1.[ [ [ [ [ [ 1.&.1.1.a.a.1.1.&.&.&.&.&.1.1.1.1.1.1.a.h.x.h.1.[ w w ",
"h w / a.a.[ / _ &.&.&.&.&.&.&.1.1.1.1.1.1.1.1.1.&.1.1.a.a.a.1.1.&.&.&.1.&.&.&.&.t.&.1.h.q.0.6._ q q ",
"d q n &.&.G b n &.&.&.&.&.&.&.1.1.1.h.h.h.h.1.1.&.1.1.a.a.a.1.1.&.&.&.1.&.&.&.&.s.&.[ [ ( d a a h h ",
"w w / o./ 9 9 G Z G [ &.1.1.1.&.&.a.h.a.&.[ 1.h.1.1.1.1.1.h.h.h.a.a.a.1.1.1.1.&.K a.1.b n 1.o.q w w ",
"q w / ;.o.A G 1.G K [ &.1.1.1.1.&.1.h.a.&.[ &.1.1.1.1.h.h.h.h.h.1.a.1.1.1.1.1.1.&.x.h.[  .j.1.9 w w ",
"q q / 1.q.;.1.x.K K [ &.1.1.1.1.1.a.a.1.&.[ [ &.1.1.1.1.h.h.h.h.1.1.1.1.1.1.1.1.K a.h.1.;.j.;.9 w w ",
"q q m 1.j.1.1.x.[ [ &.&.1.1.1.1.a.a.a.a.1.&.&.&.1.1.1.1.1.1.1.1.&.&.&.1.1.&.1.1.Z &.1.1.1.1. .q w w ",
"w w m 0.q.1.1.1.&.&.&.&.1.1.1.1.h.a.a.a.a.a.1.1.h.h.1.1.[ G G n [ [ &.&.&.&.1.1.K &.1.1.1.1. .w w w ",
"g w w o.q.;.[ [ a.1.1.&.&.1.1.a.a.1.&.1.i.a.a.1.h.h.1.[ / G G b [ [ | &.&.1.1.1.&.&.1.h.j.j.;.` w w ",
"g w w o.j.1.[ [ a.a.1.&.&.1.1.a.[ K G K 1.1.1.&.h.1.1.1.1.[ [ [ K K [ [ &.&.1.a.a.&.&.h.h.j.1.7.d d ",
"w q 9 o.j.h.1.1.h.a.1.&.&.1.a.a.G Z b Z [ 1.&.[ 1.1.1.1.1.h.h.1.K K [ [ &.&.1.a.a.K K 1.1.0.o.7.d d ",
"d - : 7.q.q 9 B.h.a.U C R >.8.n.G G G G G [ [ 1.1.1.1.1.1.1.1.1.C U 1.q.1.1.Q Q V ~ k.! U 1.n 7 w w ",
"t o o a a < < k ` ;.a.t.R U 8.M.[ [ [ [ [ [ 1.1.1.1.1.1.1.1.1.1.C U 1.1.1.+.U C U t.t.[ 1.q.6.w f f ",
"+ O . + + + @ e 5 g 1.h.U U +.x.1.1.1.1.1.1.1.h.1.1.1.1.1.1.&.&.r.&.1.1.;.1.K C j.7.m q h k a < a a ",
". + + . . @ & @ $ < h 7.1.U =.z.h.h.h.1.1.1.h.1.&.1.1.1.1.1.&.&.t.&.&.1.1.1.1.[ b.k < - - - X   @ @ ",
"o - , - - : ; $ X o - 0 _ >.! C h.h.1.1.1.1.1.h.&.&.1.1.1.1.&.&.a.&.&.1.h.j.0.` j , o o @ o X . X X ",
"; 2 2 1 2 2 2 1 $ X X - d ;.&.C 1.1.1.1.1.1.1.a.&.&.1.1.1.1.&.&.1.&.&.&.h.1.4.d $ X X & , , , u & & ",
"5 1 ; ; 1 1 2 3 4 * $ $ < h o.t.1.1.1.1.1.h.h.h.&.&.&.1.1.1.1.&.h.&.U &.1.( 0 - # # % 4 4 , 1 6 2 2 ",
"u , $ $ % $ , s i 4 * $ - 5 ` h.1.1.1.1.h.h.x.x.&.&.&.1.1.1.&.&.q.1.U U [ w - . % ; 1 6 1 # # % 3 3 ",
"1 2 5 2 ; ; 2 6 3 q 1 - % X 4 C.1.1.&.&.&.&.&.1.i.1.1.1.o.1.1.1.x.[ q.V.B X   % 3 1 - % % - : 1 2 2 ",
"2 2 2 2 2 2 2 5 1 6 2 2 : # % v.&.&.&.&.&.1.1.a.1.h.h.1.1.1.1.1.a.[ 7.v.a # # 2 3 2 1 1 1 1 4 3 2 2 ",
"2 2 2 2 6 6 2 2 ; 2 5 6 5 $ # s [ [ &.&.1.1.a.a.o.1.h.h.h.h.1.1.a.1.` 0 - % : 6 2 2 2 2 2 2 4 4 2 2 ",
"2 2 1 2 6 6 2 1 % 1 2 6 s % X 4 &.&.1.1.1.1.&.&.b G o.h.h.h.h.1.&.h._ - X - 3 3 ; 1 2 2 2 ; ; - 2 2 ",
"2 1 ; 1 2 2 1 ; ; 1 ; 2 6 % $ 5 a.a.a.a.1.&.K K 9 b G 1.h.h.h.h.K x.7.- X : 3 % % 1 2 2 1 ; - - 2 2 ",
"2 1 ; ; ; 1 1 1 1 1 % ; 6 - $ u 1.a.a.a.1.&.K G 9 b G [ 1.h.h.h.K x.7.: $ : 1 $ ; 2 2 2 ; - : 1 2 2 ",
"2 2 1 ; - ; 2 5 3 2 - ; 6 - $ 4 [ &.1.a.a.1.&.[ [ [ 1.1.1.h.h.h.&.x.7.: % , 4 % 2 2 3 1 ; - 1 6 2 2 ",
"2 2 2 ; % ; 2 q 6 3 ; 2 s - X : Z K &.a.h.h.a.1.x.h.h.h.1.1.h.h.a.h.M : - , 3 1 2 2 2 ; % % 1 s 2 2 ",
"2 2 2 2 2 2 2 2 1 2 2 5 6 % X u ( ( ( ( ( ( ( ( 7.0.1.1.0.7.o._ w w h 4 X % 6 2 2 2 2 2 2 2 2 2 2 2 ",
"2 2 2 2 2 2 2 2 1 2 1 3 6 % X u w w w w w w w w 9 w w w w 9 q q w w h 5 X % 6 2 2 2 2 2 2 2 2 2 2 2 "
};
