/* XPM */
static char *_83beb4d678b4d51adaba7c1220854b06RWbfIHA6447HufZ[] = {
/* columns rows colors chars-per-pixel */
"50 50 26 1 ",
"  c #279605",
". c #299706",
"X c #269905",
"o c #2C9B06",
"O c #2E9F07",
"+ c #2F9808",
"@ c #309B07",
"# c #309E07",
"$ c #309A08",
"% c #319E08",
"& c #349D08",
"* c #359C09",
"= c #389E09",
"- c #2BA006",
"; c #2EA006",
": c #2FA406",
"> c #31A207",
", c #33A507",
"< c #34A507",
"1 c #32A008",
"2 c #35A108",
"3 c #33A408",
"4 c #36A408",
"5 c #38A309",
"6 c #3BA50A",
"7 c #37A808",
/* pixels */
"2#%oOOoOOO23>>o#>#OO2Oooo#&6OoOoooOOo>#%6%O1&#ooO;",
"ooo#1oOOO#OoO##;,OO &oOOOoo51o%#OO;,;o#O>1oo%,%ooO",
"o#o>2>OO4>o@$$2O#%oo#14#OO#21O%1>%o#%oOOo%o;;O%>#O",
">,OOOO#>2oo%%%2#.oO>;15#oO#&#%2;;##%%%OOo2>O>O>#&%",
">1#Ooo%#%#o%%OOooOO1;##OO222%>#%1O66>OO%#>>1O1>o>>",
">#%O>>#OO##o%4#Oo1>>;#$$O1>4%2&@%%&12o%&OO@Ooo#oo%",
"#o%ooO@..o>>O2>oo%44#%#oOOO24>###&>>2oo%@O%.oo%o#>",
"Xo;1ooo$o#oo.oOOo>O%221oooo12#O%%&%o&%O;2O%OOo$##O",
"o#O2OOO212Oo#%%%#1OO+%#OoO>#O%O%%##OO#>>2OO21#111o",
"Oo$>4O#%%#O24,###>;OO%&1#>OoO>o%#%Ooo%$&#o;Oo>4OO%",
";o#>4>2#%ooo%O>oOooo%22#>OOOOOo#;;>oo%O#OOO#O;1>1O",
"oO#O#>###2,;OoOooOOO%22#o%o$ooO#OO1O2#OO##oO;o#12O",
"ooo%%&%2#>42Oo@%ooooOO>ooO2>>>2Oo%o%>#oooO;o#:,O%#",
"oooo>#242>2%#%>%oO#oo>O o42##2&o#%o&O#&ooOOoOooo&%",
"oXO;OO#$@122O>O%;O#>ooo O2&#oo#->2O>o2>Oo##;O>O#2%",
"X.OooOOOo#&21>>14#O>OoOoO%1>%oo:OOo>>&OOo>O&2>o%o$",
"oO2OOOO#Ooo$%o#O22O.%oOo%4Oo&O;1ooo#&@oOoOO%%&%%##",
"O>##>2%o1;o##oOo22>O#ooo%&##2>##Ooo.#Oo#OO%O>42>,#",
">##%o2414>oo&1%X%#%#OO#OO#52&%oO>##OO#oOo#2%241O1%",
"##O>%%oo%%OO1&%OOo&%O>#OO;4>&&oO1>>>OOO>oO;1##oo%#",
"22>#ooooo#>%2>#oooOOoOOoo;O#>%oO>2;Oo1,oooooo%oOoo",
"o%ooooooooo24OOOooOOoo1>OOo@;>#o@#OOo&##oooo#%O%%#",
"O#oo>oOo#Oo1&O##oo#>;%%14#O,oo>#$1#24&#4OOOOOO#%%O",
"22>O4O,>%22O%o%%XO1%oOo%&oO>oo#1Oo&%o@%1#O>Oo%%#oO",
"%%%O>>#O&%&>2o>>o.#oooo%>1oO#&%##o&%o##oO##Ooooo#>",
"oO#O>#Oo##o1>#>#O,4o>ooO;4Oo%2>;O#5#O;OoOo#%2>O1%$",
"OOoO$#>4211>o@$#,<6O;O#>##OO21OOOO%o;;oo#;;%%1#&&o",
"O%oO%&252>1>O>#24-2OO@#%#ooO2#o$2Oo&O;OO2%O%@#2#;;",
"OooO#>&&&Ooo>Oo>>o2Oo>>>;oo%%o##>OO>Oo#2>###%21O>>",
">OO##o221$.ooOo#o&1%O#5o#O%O%OO%1OO%Ooo>#OO#@2#oo#",
"o21%OO>2oOOOOO##o&>ooO&##O2>76212#22%OooOOO%%2#OOo",
"Xoo@>>#ooOO1Ooo2OO;OO%o##OOo%%5>#%&5&1O##O>42%>;>1",
">O%O#O##o#O1OoO&1O;;1>%>oOoo#@%O&O##%&+ooO2%%#;o$o",
"OO>Ooo>>2O@%#oo$&o@>>OO>%%#O,>>>2OOO;6#Xo.%O;O>%@.",
"OOOO#o%OOO##ooo#22o#oooO#%>O1OO%;o##O21o>OOOOO1#Oo",
"2$.%2O4%oOOOoooO2,o#oooO22#OoO%&oO#%oo2#>>Oo#O#oO#",
";#2>&>2&OOOOOO2O%%O4OOOO1###OO&&O>OOOoo&O;o-O@.oO%",
"oo1##O$%O;2O,O%%O#>%%oO5o%Oo%152&2OOO1O%#;OOo%>;oo",
"OOOooo$OoO2#%;O%#o2%#>22@@#OO>##&&oOO2>O>>%2o#%Oo%",
",#OO#O2#ooO2o#O;#Oo%oO%oO;->OOoo141o;Ooo#$$%;1oo%4",
">%oO2#OO;Oo%##oO1#Ooo#OOo2Oo#O1#O22O#o#&##Ooo=1;12",
"#&oo2OoOoOOO22Oo1o2OO2#O>4@@%&%%o%1OOoo4-;OOo51#%#",
"O2OO%oO1#Ooo##1O%o>O#%@o>2%2>>O#;Ooo#2O;>,1##6#>%o",
"o1Oo21Oo%%oo##&o#ooO#OOOooO%ooOOooooo11O%&4O#2OO%o",
"o%#o%Oooo%OXO&%o>1oo%o;;1#O#oo##ooOOooOOoo3;O#OO%;",
"oO;#%oo>OO.o;#OO&2o%#O>#>>>>#OO2>O>O$ooOOO>;>42O>%",
"1>O##oOOOOoO%ooO22O>>O#Oo&2#ooO>>o%O##>>OO;o@&&#O1",
"2OoOO#&#>>>ooooo%O>####Ooo%%;O#%%oO@>;O%%XOOooo%#O",
"1OOoo412ooOoOO;o#oo%#22ooOO.#%oo&oO11;O@@oO#O;>2#>",
"2O;ooo%&oO%#O>;Oo#O%o#&oO21OOOOo&#$o#%%#61O>>O24&o"
};
