/* XPM */
static char * mario_new_xpm[] = {
"50 50 236 2",
"  	c #35A108",
". 	c #309E07",
"+ 	c #319E08",
"@ 	c #299B06",
"# 	c #2E9F07",
"$ 	c #2C9F06",
"% 	c #2A9B06",
"& 	c #2F9C07",
"* 	c #2D9E06",
"= 	c #2E9E07",
"- 	c #34A308",
"; 	c #33A408",
"> 	c #32A307",
", 	c #30A007",
"' 	c #2F9B07",
") 	c #309D07",
"! 	c #30A107",
"~ 	c #319E07",
"{ 	c #2D9F06",
"] 	c #2C9C06",
"^ 	c #34A008",
"/ 	c #2B9C06",
"( 	c #2D9807",
"_ 	c #299806",
": 	c #299906",
"< 	c #309C07",
"[ 	c #349E08",
"} 	c #3BA50A",
"| 	c #2D9C06",
"1 	c #2D9C07",
"2 	c #2E9907",
"3 	c #2E9807",
"4 	c #2E9A07",
"5 	c #2E9F06",
"6 	c #2A9F05",
"7 	c #31A107",
"8 	c #38A409",
"9 	c #339F08",
"0 	c #2E9D07",
"a 	c #32A008",
"b 	c #329F07",
"c 	c #2F9A07",
"d 	c #2D9907",
"e 	c #2EA006",
"f 	c #2D9B07",
"g 	c #2D9A07",
"h 	c #2B9D06",
"i 	c #319C07",
"j 	c #2E9C07",
"k 	c #2E9B07",
"l 	c #2F9F07",
"m 	c #309F07",
"n 	c #33A407",
"o 	c #2F9E07",
"p 	c #279605",
"q 	c #359E08",
"r 	c #2B9B06",
"s 	c #2E9E06",
"t 	c #39A309",
"u 	c #2D9D06",
"v 	c #2EA106",
"w 	c #31A407",
"x 	c #329F08",
"y 	c #2B9A06",
"z 	c #35A008",
"A 	c #31A007",
"B 	c #36A408",
"C 	c #309B07",
"D 	c #329B08",
"E 	c #37A309",
"F 	c #2C9D06",
"G 	c #319D08",
"H 	c #2B9806",
"I 	c #2A9906",
"J 	c #319F07",
"K 	c #32A208",
"L 	c #37A708",
"M 	c #319D07",
"N 	c #35A208",
"O 	c #33A108",
"P 	c #329E08",
"Q 	c #2C9B06",
"R 	c #339E08",
"S 	c #329C08",
"T 	c #2DA106",
"U 	c #2FA206",
"V 	c #31A207",
"W 	c #2F9D07",
"X 	c #33A507",
"Y 	c #36A109",
"Z 	c #329D08",
"` 	c #35A308",
" .	c #2B9706",
"..	c #2D9D07",
"+.	c #2DA006",
"@.	c #D82800",
"#.	c #2FA107",
"$.	c #2FA007",
"%.	c #339D08",
"&.	c #32A108",
"*.	c #339C08",
"=.	c #2E9B06",
"-.	c #FC9838",
";.	c #33A308",
">.	c #3AA409",
",.	c #3AA609",
"'.	c #33A107",
").	c #32A107",
"!.	c #33A008",
"~.	c #32A207",
"{.	c #32A007",
"].	c #34A408",
"^.	c #2B9E06",
"/.	c #31A307",
"(.	c #34A208",
"_.	c #359D08",
":.	c #319B07",
"<.	c #359F08",
"[.	c #299A06",
"}.	c #319C08",
"|.	c #2C9A07",
"1.	c #2A9806",
"2.	c #299606",
"3.	c #30A207",
"4.	c #2A9F06",
"5.	c #289A05",
"6.	c #329E07",
"7.	c #349F08",
"8.	c #289606",
"9.	c #279A05",
"0.	c #309B08",
"a.	c #2C9A06",
"b.	c #2A9606",
"c.	c #299C05",
"d.	c #34A108",
"e.	c #887000",
"f.	c #2C9C07",
"g.	c #319B08",
"h.	c #34A508",
"i.	c #36A708",
"j.	c #32A407",
"k.	c #359E09",
"l.	c #299D05",
"m.	c #2FA106",
"n.	c #2CA006",
"o.	c #36A208",
"p.	c #2C9E06",
"q.	c #2F9F06",
"r.	c #2EA306",
"s.	c #2D9B06",
"t.	c #349D08",
"u.	c #36A608",
"v.	c #289906",
"w.	c #33A207",
"x.	c #2A9A06",
"y.	c #2EA007",
"z.	c #2FA407",
"A.	c #30A506",
"B.	c #2B9906",
"C.	c #36A308",
"D.	c #299B05",
"E.	c #2C9806",
"F.	c #359D09",
"G.	c #299F05",
"H.	c #279B05",
"I.	c #2E9C06",
"J.	c #37A109",
"K.	c #269805",
"L.	c #289706",
"M.	c #2D9A06",
"N.	c #33A208",
"O.	c #2DA206",
"P.	c #299706",
"Q.	c #37A408",
"R.	c #36A008",
"S.	c #35A508",
"T.	c #289C05",
"U.	c #319F08",
"V.	c #2A9C06",
"W.	c #36A508",
"X.	c #33A307",
"Y.	c #309C08",
"Z.	c #359C09",
"`.	c #2CA106",
" +	c #37A409",
".+	c #309A07",
"++	c #369F09",
"@+	c #2C9906",
"#+	c #369E09",
"$+	c #35A109",
"%+	c #36A108",
"&+	c #2C9907",
"*+	c #37A209",
"=+	c #2D9F07",
"-+	c #2E9D06",
";+	c #319A08",
">+	c #37A009",
",+	c #38A109",
"'+	c #379E09",
")+	c #289905",
"!+	c #2A9E06",
"~+	c #36A009",
"{+	c #2B9F06",
"]+	c #279805",
"^+	c #30A307",
"/+	c #38A209",
"(+	c #2F9808",
"_+	c #309A08",
":+	c #2C9807",
"<+	c #2A9706",
"[+	c #2B9606",
"}+	c #2FA306",
"|+	c #299A05",
"1+	c #2BA006",
"2+	c #309908",
"3+	c #38A309",
"4+	c #30A407",
"5+	c #329A08",
"6+	c #35A408",
"7+	c #389E09",
"8+	c #2BA305",
"9+	c #38A509",
"0+	c #2A9D06",
"a+	c #359F09",
"b+	c #37A509",
"c+	c #259B05",
"d+	c #32A408",
"e+	c #2DA007",
"f+	c #349C09",
"g+	c #349C08",
"h+	c #2EA206",
"i+	c #37A308",
"j+	c #289E05",
"k+	c #2A9B05",
"l+	c #309E08",
"m+	c #36A309",
"  . + @ # $ % & * = - ; > , ' ) ! ~ { ] ^ / ( _ : < [ } | / 1 2 3 4 & 5 6 7 < + 8 9 0 a [ b c d # e ",
"f g 2 < a h { * | i j k l m i e n o j p q r j s ] f & t a : 9 < ] u v w e f . = , a r 2 9 n x k f 0 ",
"y m / 7 z A 5 * B A ' C D D E F m G H I J K L J F ] M N O & 9 a A P Q ) R c = u f S @ T U 0 R V b W ",
"V X 5 5 1 & ~ , Y f g P Z P ` ~  .2 .., +.O @.@.@.@.@.@.@.Z - #.$.m m R %.P F o 4 N ! 0 , l A J q Z ",
"V &.J W y Q *.~ x m Q R Z o o ' =.o j @.@.@.@.@.@.@.@.-.-.7 m 9 ;.W >.,.'.o = Z m V ).!...a ! r ~.{.",
").) 9 W , 7 m = l m ) c x ].b j ^.O /.@.@.@.@.@.@.@.@.-.-.(._.:.x Z q ;.- k *.<.W 5 C & [.f m [.d }.",
"~ ' Z c |.W C 1.2.Q /.3.{ (.3.4.5.R @.@.@.@.@.@.@.@.-.-.-.~.M 6.M 7.A 7 z c 2 S C | x 8._ j G [.o ! ",
"9./ e a Q 1 & 0.a.J k a.b.c l # j ).@.@.@.@.@.@.@.@.@.@.@.@.@.@.@.[ S ' 7.P F #.(.o }.0 * ' D J J = ",
"c.W = d.o u { N ;.d.l k ) G }.%.M !.e.e.e.e.-.-.-.e.-.-.-.-.f.x Z ) < = * m ! ~.d.| & N a . !.;.;.f ",
"u f g.).h.5 ) Z 9 M * N i.j.. < M A e.e.e.e.-.-.-.e.-.-.-.-.: R b R F c.Q Z g.k.~ l.m.W 4 > ].| o P ",
"n.r . 3.].~.o.J 9 g d g %.p., 4.e.e.-.-.-.e.-.-.-.e.e.-.-.-.-.-.-.$.> c.f Z W . 5 q.W . { r.!., &.l ",
"h * m j < ~.) . ) N n #.F / j r e.e.-.-.-.e.e.-.-.-.-.-.-.-.-.-.-.-.!.& N M F * m . ' o +.^.m &.- { ",
"g k s.}.x t.9 ^ m /.u.N 0 s.:.9 e.e.-.-.-.e.e.-.-.-.-.-.-.-.-.-.-.-.v.P w.< k x.k W y.Q m z.A.# 9 m ",
"B./ |.' 7 ) N B - V C.x < P A e.e.e.-.-.-.e.e.-.-.-.-.e.e.-.-.-.-.-.r 7.& . 7.k D.= j D.o d E.d F.P ",
"G.H.F e 0 I.. 0.C !.J.- & ).o e.e.e.-.-.-.-.-.-.-.e.e.e.e.e.e.e.e.d.W 3.% N 7 0 I < i $.o A ] J z 9 ",
"K.L.# h M.s l = % ) [ ^ O /., e.e.e.e.-.-.-.-.-.-.-.e.e.e.e.e.e.e.W g /.7 [ u u r 3.W F.^ > / Z k D ",
"_ | (.W & W o M & x.g g.S 4 . e.e.e.e.-.-.-.-.-.-.-.e.e.e.e.e.e.e.: f ) [ C B.0 r & 0 G Z [ P 9 . m ",
"F A . ) 7 (.x ' N.O.c.. . Q | % ^ ^ e.e.e.-.-.-.-.-.-.-.-.-.-.< & M.x.P.< l h . p.& x l 7 Q.o.V n J ",
"V m . x ' R.S.N.].7 T.a.[ !.x K.U.) Z @.@.-.-.-.-.-.-.e.e.}.c W ! m ) F $ ) [.o V.J z G (.W.O l N.Z ",
"i i { X.}.%.H k P + * o O k.Y.F p.y Z.e.e.@.e.e.e.e.e.@.@.e.4 ] !.X./.A # j l , r o `.N.M . k k + ) ",
"z C.A ~ y ' _ / 4 . ).R - 7 ) h v.Q o e.e.@.e.e.e.e.e.@.@.e.s.* > (.$.= Q ;.j.4 g 1 @ f ' P Q | 4 d ",
"4 G f 4 B.y h Q 4 B.f d. +o * u : r e.e.e.@.e.e.e.e.e.@.@.e.e.k .+. 0 j x.++) < a.|.d k ) %.j 9 x < ",
"W ) g @+, Q ] x.. j Q a #+W . ) e.e.e.e.e.@.e.e.e.e.e.@.@.e.e.e.e.&..   ].<.) W.o = j l p.= J P G = ",
"$+N 7 u ].l w , R (.%+o x &+*.e.e.e.e.e.e.@.e.e.e.e.e.@.@.e.e.e.e.e.<.9 4 .+U.a ~ * ! F r Z + i s.W ",
"S P x u ~.~., 0 [ %.[ ! N f , e.e.e.e.e.e.@.e.e.e.e.e.@.@.e.e.e.e.e.<.Z k m ~ 4 l J . & g 4 k k . A ",
"' u . | A m & a.) J ^.N.A m ).e.e.e.e.@.@.@.e.e.e.e.e.@.@.@.e.e.e.e.*+o 5 #.] Q ..% ) P d., =+&.R g.",
"-+o V.# ;+M A ].- !.N.V / C e.e.e.e.e.@.@.@.e.e.e.e.e.@.@.@.e.e.e.e.e.' T e x.B.. n.e %.*.!.. 7.[ f ",
"] S k $ }.7.>+,+- 7 O A $ , e.e.e.e.e.@.@.@.@.@.@.@.@.@.@.@.e.e.e.e.e.7.o $.= o z %.& }.:.b z m $.e ",
"q.a.c j J A ++'+t.= V.x.).{ e.e.e.e.e.@.@.@.@.@.@.@.@.@.@.@.e.e.e.e.e.).* y . o.{.~ . m P %+!.{ ).A ",
"7 q.F . i d d.` N.}.P.x.d 1 e.e.e.e.e.@.@.-.@.@.@.@.@.-.-.@.e.e.e.e.e.9 W @+Q 7 . # s ~ C R.J x./ . ",
")+o.&.9 = W {.(.!+l 0 ] F W -.-.-.-.-.@.@.@.@.@.@.@.@.@.@.@.-.-.-.-.-.~+9 | {+a.l { W S Z ^ < F p.s.",
"]+' 4 .+^+3.J 4 v.o W !.* Q -.-.-.-.-.@.@.@.@.@.@.@.@.@.@.@.-.-.-.-.-./+q !.o < ~ o A ].- P , O.A &.",
"A 1 G l J I.J ) c ) | O o h -.-.-.-.-.@.@.@.@.@.@.@.@.@.@.@.-.-.-.-.-.M 9 7.(+a.V.p.(.x %.) T d _+/ ",
"# 0 , ..y @+7 V   & C R M h x.-.-.-.-.@.@.@.@.@.@.@.@.@.@.@.-.-.-.-.o o $.8 J ]+:+<+Z l $.u ! %..+8.",
"o = 0 W . % x = W = . b k s.)+-.-.-.@.@.@.@.@.@.@.@.@.@.@.@.@.-.-.-.M b $ ` O ^.A = ] ] o p.&.J W 2 ",
"C.D [+G ` F h.x _ 1 # * x.g Q -.-.-.@.@.@.@.@.@.@.@.@.@.@.@.@.-.-.-.< S s.h d.) 3./.F % ) 0 ) k * J ",
"}+~ (.).7.A (._.u # 0 u = F d.W @.@.@.@.@.@.@.@.@.@.@.@.@.@.@.@.@.V = = l |+' 7.F +.{+1+= C b.[.u 9 ",
"& g O . J W 2+R l T ^ W n F P @.@.@.@.@.@.@.@.3+j }.@.@.@.@.@.@.@.@.= F W a 0 G < +.# 0 4 x {.n.V.2 ",
"F u 5 d B.:+D W ^.F %+b G $.= @.@.@.@.@.@.@.  ~+C C ) @.@.@.@.@.@.@.Q | j ^ ! p.! , }.Y c < 9 ..a.P ",
"4+m 0 o . * z . B.I s   k . * @.@.@.@.@.@.@.9 a.= $.1+@.@.@.@.@.@.@.;.^.$.u H a.. 0.5+9 +.O c :+9 6+",
"A S D.$   < 0 ] +.W @+9 < ) B.@.@.@.@.@.@.@.& F ^.- ] @.@.@.@.@.@.@.Y 0 ~ / m 7.~ m = Q d 7+!.#.O *+",
"b 7.v.r   F r u x.p.0 1 ^ ^ ) s.e.e.e.e.e.e.m l , B C e.e.e.e.e.e.x N.F W 1.y h.8++.* ] c t O ~ 9 b ",
"& (.{ 0 Z a.o ;.J p.4.I ~ . a W e.e.e.e.e.e..+Q ! o.9 e.e.e.e.e.e.# k _ ) z & e 3.j.O J J 9+. A Z r ",
"0+O | : d.a 0 j U.G l.r < A ^ f e.e.e.e.e.e.= u 4 ' # e.e.e.e.e.e.c.g r ^.;.O W P a+b+# . (.& W x ^.",
"{+R ) k G ] h Q @+}...c+o [ e.e.e.e.e.e.e.e.U y.;.J { e.e.e.e.e.e.e.e.l g Q $ | 2 B.d+T 1 J l u Z $.",
"f o e+M R l.6 7 5 1 P.% $.b e.e.e.e.e.e.e.e.~.m ! {.'.e.e.e.e.e.e.e.e.0 ;+Q r ] o F 7 e 7 B N | , S ",
"O 3.| b J )+F j $ 5 / W S f [.W J.d.5 > 7 * . W k t.N J Q _ F /.7 % }.j m A ~.V & ] $.r C <.f+) s !.",
"~+& @+o 1 i g+< , , , s.|.k a.x.U.1 A . ) ) ) W I s.G %.h+0 < x Z / l C A #.p.9 S K.* ] B.' 2 Z M 0 ",
"a 0 1 y a.6+;.  g d j g F l T 0+. a.@+Z . i+d.|.Q l | <+m 9 d ' #+y o O ;.$.0 C C v.o M q.U 7   b , ",
"  = n.j+k+f l+[ s.] x m = 7 $.1 y M j P ( i g+% o d.N.$ l o $ x.7.< _+@+) }.Z m 8 O = > ! W m+6+7.' "};
