/* XPM */
static char *fa8ef4021d2743f3ffad5f3e5b6d7a45uY9sFZX355n0tXPW[] = {
/* columns rows colors chars-per-pixel */
"50 50 221 2 ",
"   c #5D5900",
".  c #625E00",
"X  c #775C01",
"o  c #5C6401",
"O  c #636400",
"+  c #696600",
"@  c #656C00",
"#  c #6D6B01",
"$  c #736E01",
"%  c #7F6501",
"&  c #657000",
"*  c #6E7600",
"=  c #667F00",
"-  c #6C7A01",
";  c #737101",
":  c #7A7403",
">  c #777A07",
",  c #757412",
"<  c #7C7B13",
"1  c #797915",
"2  c #BE0900",
"3  c #BE1401",
"4  c #B91F03",
"5  c #AE1901",
"6  c #9F3C00",
"7  c #933B01",
"8  c #AD2D01",
"9  c #A62402",
"0  c #B32401",
"q  c #B12C03",
"w  c #A33701",
"e  c #CE0101",
"r  c #CC0A01",
"t  c #CF0B0C",
"y  c #C70001",
"u  c #D10000",
"i  c #DB0000",
"p  c #D10C0C",
"a  c #D10F04",
"s  c #C11302",
"d  c #CC1907",
"f  c #D21E05",
"g  c #D0130F",
"h  c #CE0410",
"j  c #D60B11",
"k  c #CE1614",
"l  c #D01211",
"z  c #E10100",
"x  c #D32303",
"c  c #D1300E",
"v  c #D22B2B",
"b  c #824D01",
"n  c #934500",
"m  c #9A4402",
"M  c #944B02",
"N  c #984906",
"B  c #8D5302",
"V  c #855C01",
"C  c #9A5311",
"Z  c #8A7D04",
"A  c #807809",
"S  c #807907",
"D  c #837F1C",
"F  c #827F20",
"G  c #DD4B09",
"H  c #DF5E09",
"J  c #DE5A07",
"K  c #DE5C10",
"L  c #D47207",
"P  c #E26608",
"I  c #E87908",
"U  c #D85454",
"Y  c #D96463",
"T  c #CF7B6F",
"R  c #608600",
"E  c #8F8106",
"W  c #948305",
"Q  c #998505",
"!  c #9F8806",
"~  c #83801D",
"^  c #8F8313",
"/  c #92871B",
"(  c #A38A04",
")  c #A98E06",
"_  c #A18907",
"`  c #AD9006",
"'  c #B99606",
"]  c #848121",
"[  c #8D8B34",
"{  c #8B8A38",
"}  c #D29A08",
"|  c #D39406",
" . c #E08707",
".. c #CBA005",
"X. c #CAA10A",
"o. c #C7A007",
"O. c #D5A506",
"+. c #DCA906",
"@. c #D5A60A",
"#. c #DBA807",
"$. c #C7A216",
"%. c #E4AE06",
"&. c #E3AD09",
"*. c #F6A802",
"=. c #EBB106",
"-. c #E7B30A",
";. c #F3B505",
":. c #FBB603",
">. c #FDBA05",
",. c #F9B409",
"<. c #F7B908",
"1. c #FCBA09",
"2. c #F4B607",
"3. c #FABC13",
"4. c #F3BD1F",
"5. c #EDAA1E",
"6. c #CDAC32",
"7. c #F8BF24",
"8. c #E6B723",
"9. c #FEC206",
"0. c #FFCC06",
"q. c #FEC009",
"w. c #FFD308",
"e. c #F7C21C",
"r. c #FCC123",
"t. c #FAC32B",
"y. c #F4C633",
"u. c #8F8D42",
"i. c #979446",
"p. c #9F9C55",
"a. c #959553",
"s. c #A29D5A",
"d. c #A7A157",
"f. c #AB9B67",
"g. c #A9A66A",
"h. c #ADAC74",
"j. c #AFAF7A",
"k. c #A6A97A",
"l. c #B1AF7A",
"z. c #C5AD49",
"x. c #F1C641",
"c. c #F0CC52",
"v. c #E8C859",
"b. c #EDCF6D",
"n. c #F2D165",
"m. c #E7D17E",
"M. c #BBBD8E",
"N. c #B5B685",
"B. c #BDBC94",
"V. c #BDBD99",
"C. c #DB8E8E",
"Z. c #DF918F",
"A. c #DD9695",
"S. c #E08584",
"D. c #E4999A",
"F. c #C1BF99",
"G. c #C5AE8A",
"H. c #E39FA0",
"J. c #DFADAE",
"K. c #E8B8B8",
"L. c #E7A5A5",
"P. c #C3C299",
"I. c #EAD487",
"U. c #F0D990",
"Y. c #C4C4A2",
"T. c #C9C7A1",
"R. c #CBCBAA",
"E. c #C5C8A9",
"W. c #D7D6BB",
"Q. c #CBC9B0",
"!. c #E0D8B4",
"~. c #EEE1AE",
"^. c #D9DBCA",
"/. c #DECAC3",
"(. c #E6D6D5",
"). c #EDDCDC",
"_. c #E8D7D6",
"`. c #F3DBDB",
"'. c #E0DDCA",
"]. c #DDE0D5",
"[. c #E7E3C6",
"{. c #E5E5DB",
"}. c #EEE8D7",
"|. c #F3E8DD",
" X c #F7F1D6",
".X c #EDDEE3",
"XX c #EBEBE5",
"oX c #EDEDED",
"OX c #E6E6E3",
"+X c #F4E2E2",
"@X c #F9E7E7",
"#X c #F3ECEC",
"$X c #F8ECEC",
"%X c #F1F1E7",
"&X c #F1F1EE",
"*X c #FDF7E6",
"=X c #EFEFF1",
"-X c #F8EFF4",
";X c #EEF2F1",
":X c #ECF1FC",
">X c #EFF8F7",
",X c #F4F4F4",
"<X c #F9F6F4",
"1X c #F6F8F5",
"2X c #F9F9F6",
"3X c #F6F6FA",
"4X c #F9F7FA",
"5X c #F6F9FB",
"6X c #F6FDFD",
"7X c #F5FBFC",
"8X c #F8F8F8",
"9X c #FBFBFB",
"0X c gray98",
"qX c #F9F9F9",
"wX c #FAFFFF",
"eX c #FDFDFD",
"rX c gray99",
"tX c white",
"yX c #FEFEFE",
"uX c #FEFDFE",
"iX c #FBFCFC",
/* pixels */
"tXoX8X1XoXtXoXtX=X1X8XoXtXoX8X1X,XtXoXtX#X1X3XoXtXoX8X,X,X8XoXtXoX8X1X,XtXoXtXoX1X2XoXtXoX8X1X,XtXXX",
"1X1X1X1X1X1X1X1X1X1X1X1X1X1X1X1X1X1X1X1X1X6X6X6X6X6X6X5X6X6X6X6X1X1X1X1X1X3X3X3X3X3X3X5X1X1X1X1X1X1X",
"oXtX,X1X8XoXtXoX8X1X,XtXoXtX,X1X8XoXtXoX$X).).@X_.@X_.+X+X_.@X(.1X,X1X8XoX*X}.*X X|.*X}.tX,X3X2X#XtX",
"tXoX8X1XoXtXoXtX,X1X8XoXtXoX8X1X,XtXXXtXY e p t p t p p p t p u J.wX,X,X<X7.1.3.3.3.1.t.XXtX,X,XiXoX",
",X1X1X1X1X1X1X1X1X1X1X1X,X1X1X1X1X1X8X6XU e e u u u u e u u u e K.wX5XwX,Xe.>.>.>.:.:.7.,X1X,X1X1X1X",
"oX8X,X,X8XoXtXoX8X1X,XtXoXtX,X1X5XoX`._.U e u e e e u e e e e e L.)._.`./.5.*.,.>.1.:.r.2X,X1X1X=XtX",
"tXoX8X1X,XtXoXtX,X1X8XoXtXoX8X,X,X@Xk t e e e e e u e e u u e e e p p p t r y I 9.:.:.r.XXtX,X,XtXXX",
",X1X1X1X1X1X8X1X1X1X,X8X,X8X1X1X6X).p u u u u u u e e e e e u u e e e e e u e I 0.>.>.r.,X,X,X1X,X8X",
"oX8X,X1X8XoXtX=X8X1X,XtXoXwX,X1XwX_.k s s s s 3 s f f f f f s 3 f x c v v s 2 L -.&.%.8.2X,X1X8X=XtX",
"tXoX8X1XoXtXoXtX,X1X8XoXtXoX9X,X,X%X1 ; ; $ ; ; ; -.1.<.1.-.; # @.>.v.:X%X< $ ; $ $ # F OXtX,X,XtXXX",
",X8X1X1X8X,X8X,X1X1X1X8X,X8X,X1XtXXX, # $ ; $ # # %.>.:.>.%.; # O.>.n.wXoX1 @ $ ; $ $ D ,X1X1X1X,X8X",
"oX8X1X1X8X,XtX,X8X1X,X8XoXtX1XXX'.Q.^ Z : $ : Z Z =.>.:.>.%.; # O.>.c.|.!./ Z : $ ; $ D 2X,X1X8X,XtX",
"tXoX8X1XoXtXoXtX,X1X8XoXtXXXtXP.O > 2.9._ O Q >.:.>.>.:.>.%.; # O.>.<.<.1.:.9.) # : # ~ XXtX,X,XtXXX",
",X8X1X1X8X,X8X,X1X1X,X8X,X1XtXB.+ : ;.9._ O Q 9.>.>.>.:.>.%.# @ #.9.>.>.>.:.>._ O ; $ ~ ,X1X1X1X,X8X",
"oX8X,X1X8X,X8X,X8X1X,X8X=X2XwXB.+ > ;.>._ O W &.#.2.>.1.>.=.E Z o.+.%.>.:.:.>.' Z Z # D 1X,X1X1X,XtX",
"tXoX8X1XoXtXoXtX,X1XiXoXtXXXtXP.+ S ;.>._ # ; # # %.>.1.>.>.>.>.W o _ >.:.:.:.:.>.+.# ~ XXtX,X,XtXXX",
",X8X1X1X8X,X8X,X8X1X,XiX,X2XiXM.. : <.9.! O # # # &.>.:.:.>.>.q.Q O ) 9.>.>.>.>.9.&.O < ,X,X1X1X,X8X",
",X8X1X1X8X,X8X,X8X1X,X8X;X2XiXR.{ i.@.+.) E W W W =.1.:.>.2.O.#.Z @ W #.O.O.O.O.#.$.u.s.2X,X1X1X,X8X",
"tXoX8X1XoXtXoXtX,X1X8XoXtXoX8X1X6X,X, O X.9.>.>.>.>.1.:.>.%.# # $ ; $ # # # # # @ { 3XtXoXiX,X,XtXXX",
"=X8X1X1X8X,X8X,X8X1X,X8X,X8X,X,X8X{.: O o.>.:.>.:.1.>.:.1.%.# # # # # # # $ ; $ O [ iX&X8X,X1X1X,XiX",
",X8X,X1X8X,X8X,X1X1X,X8X,X8X,X1X8XOXp.a.6.>.:.>.>.>.:.:.>.=.Q Q Q Q Q Q W ; # [ i.h.8X,X2X,X1X1X,X8X",
"tXoX8X1XoXtXoXtX,X1X8XXXtXXX8X,X&X9X=XtXn.:.1.1.1.:.:.:.:.:.>.>.>.>.>.>.1.A # B.tXiXoXtXoXtX1X,XtXXX",
"oX8X1X,X8X,XtX,X1X1X,XtX6XtXiXtXtXiXtX6Xn.>.q.9.9.9.>.>.>.>.>.>.9.9.9.>.:.: . P.tX&X9X&X8X,X1X8X,XtX",
",X8X1X1X8X,X8X,X1X8XXXR.P.R.Y.E.R.Y.R.Y.6...} I I } X.X.X.X.X.X. .I  .X.X.p.a.W.iX,X8X,X8X,X1X1X,X8X",
"tXoX8X1XoXtXoXtXoX8X[.+ # # # # # # # # # & b e y X @ @ @ @ @ & 5 u 9 @ , OXtX,X1X8XoXtXoXiX,X,XtXXX",
"oX8X,X1X8XoXtX&XiXtX^.; ; ; ; ; ; ; ; ; ; * B i u % - ; ; ; ; * 4 z q = < XX,X2X1X,X8XoXiX,X8X8X,XtX",
",X1X1X1X1X,X2X3X^.P.l.$ ; $ ; ; ; ; ; ; $ ; V 8 8 m n V ; $ $ ; m 0 w n C XX3X1X1X1X8X,X5X,X1X1X1X8X",
"tXoX8X3XoXtXXXtXg.O $ ; ; ; ; ; $ ; $ ; ; $ ; - - s z w * $ $ $ ; - M i j (.tXoX1X8XoX9XoXiX1X,XtXXX",
"oX8X,X1X8XoXwXwXk.O # ; ; $ ; ; ; ; ; ; ; ; $ $ $ 3 i m = * - - ; - B u k @X,X8X,X1XtX3XtX,X3X8X,XtX",
"1X8X1X1X1X,X~.U.z.( _ $ ; ; ; ; ; ; ; ; ; ; ; ; ; s u 0 M m m n m M 8 u l +X5X,X8X{.M.F.1X,X1X1X,X8X",
"tX=X2X1X;X9X3.:.>.9.=.$ ; ; ; ; ; ; $ $ $ ; $ $ $ s u u u u u u u u u u g (.tXoXiXW.. < XXtX,X,XtXXX",
"oX8X,X,XiXXXr.>.<.>.+.O @ # + + + @ * - ; $ ; - - s u u e e e y e r e y h 1X6XtXtX^.# ] 2X,X1X3X=XtX",
"1X1X1X1X3X&Xr.:.:.>.=.` ` d.j.h.h.g.N 6 V * % 6 m r u u e a J H f e x J K S.S.G.M.g.# D &X1X1X1X1X1X",
"tX=X2X1X,X9Xr.>.1.:.>.1.9.[.tXiXwX-Xj i m - B i u u u e e f 9.0.c y G w.1.r u 7 @ $ # D XXtX,X,XtXoX",
"oXtX,X,XwXXX3.:.:.1.:.:.;. XiX1X9X(.g u M R V u e u u e e f 9.0.c y G w.1.d u N - : # D 2X,X1X8XoXtX",
"1X1X1X1X1X,XI.I.x.:.4.m.I.G.h.R.wX).l u 0 m 8 u u u u u u a H P f e x P J r u m - $ # ~ &X1X1X1X1X1X",
"tX=X8X1X,XtX:XwXI.:.x.:XwX{   s.wX|.p e u u u u u u u u u e e e e u e e e e u m - $ # D XXiX,X,XtXoX",
"oXiX,X,X8XoX9X:Xb.*.y.tXiXi.O l.tX.Xl u e e e u u u u u u u u r u u u u u e u m - $ # D 2X,X1X8XoXtX",
"8X1X1X1X1X1X,X3X~.I.I.h.h.D # [ N.f.p u e u u u u u u u u u u u u u e u u e u m - $ # ~ &X1X1X1X1X1X",
"tXoX8X1X=XtXoX9X,XiX].+ @ $ ; $ + X r u u u u u u u u u u u u u u u u e u r u N - $ $ ] XXtX,X,XtXoX",
"XXtX,X1X8XoXtXoXiXtX^.; ; ; $ ; - ; r u u u u u u u u u u u u u e e e e e e u 7 @ + + 1 2X,X1X8XoXtX",
"3X1X1X3X1X8X,XiXR.g.p.$ ; $ * B 8 8 e u u u u u u u u u u u u e Y D.Z.C.D.C.D.G.B.B.N.T.,X1X1X1X1X1X",
"tX=X8X1X,XtXoXtXg.. $ ; ; $ - m i u u u u u u u u u u u u u u e K.wX6X6XtX6XtXwXtXtXiXtXoX8X1X,X8XoX",
"XXtX,X1XtXoX9X4Xh.# ; # @ # @ n u e u u e u u u u e e e e e e y K.7X#X1XoX9XoX2X,X&X8XXXtX,X1X2XoXtX",
"8X,X1X1X,X8X&XtXh.+ ] V.T.B.E.T u u e e e e e u e T L.A.A.H.A.D._.6X1X,X8X,X5X1X1X1X,X8X,X1X1X1X1X,X",
"tXoX8X1X,XtXoXtXh.. [ iXtX3XtXD.e u u u u u u u e _.tX6X6XwX6XtX,X8X1X,XiXoXiX,X1X8X;XtXoX8X,X,X8XoX",
"XXtX,X1XtXoX9X3Xj.# i.8XXX2X6XZ.e t p t p t t p p `.;X,X,XoX9XXXtX,X1X8XoXtXoX8X1X,XtXoXtX=X1X8XoXtX",
"8X,X1X1X,X8X,X8XXX{.XX,X8X,X8X#X).|.).+X).+X+X).+X=X5X1X1X8X,X8X1X1X1X1X8X,X8X1X1X1X,X8X,X8X1X1X8X,X",
"tX,X1X1X,X8X=X8X1X8X8X,X8X,X8X8X5XwX>XwX5XiXwX5XwX;X8X1X,X8X,XtX,X1X1X,X8X=X8X,X1X8X,X8X,X8X1X,X8XoX",
"oXtX,X,X8XoXtXoX8X1X,XtXoXtX,X1X8XoXtXoX8X,X,X8XoXtXoX8X8X,XtXoXtX,X1X8XoXtXoX8X1X,XtXoXtX,X8X8XoXtX"
};
