/* XPM */
static char *_b1d104c090a4c738235c80ebb02e73bpAeMBBoAgOCFbWyP[] = {
/* columns rows colors chars-per-pixel */
"50 50 239 2 ",
"   c #6F5E0E",
".  c #6E6B04",
"X  c #68680D",
"o  c #7D6502",
"O  c #746D02",
"+  c #7B6C02",
"@  c #746D0B",
"#  c #796908",
"$  c #6D7203",
"%  c #687A03",
"&  c #747203",
"*  c #797201",
"=  c #73720C",
"-  c #6C6914",
";  c #716D13",
":  c #757517",
">  c #797022",
",  c #7C7737",
"<  c #9C1E15",
"1  c #A90E0F",
"2  c #B50D01",
"3  c #BC0C01",
"4  c #B90B0A",
"5  c #AC1904",
"6  c #B71802",
"7  c #A51818",
"8  c #9B2702",
"9  c #9B3606",
"0  c #9C3A01",
"q  c #982517",
"w  c #993B1C",
"e  c #A52401",
"r  c #B12802",
"t  c #A53503",
"y  c #B8360F",
"u  c #A4211A",
"i  c #8F1C22",
"p  c #A51C22",
"a  c #AA1C22",
"s  c #91252A",
"d  c #C50503",
"f  c #CC0201",
"g  c #C40B00",
"h  c #C7070A",
"j  c #D10202",
"k  c #D4020B",
"l  c #C61501",
"z  c #D31E04",
"x  c #C72403",
"c  c #D62A06",
"v  c #D13010",
"b  c #CA3B27",
"n  c #8A4A03",
"m  c #944203",
"M  c #9B4A06",
"N  c #8C5808",
"B  c #955903",
"V  c #8B4E18",
"C  c #995814",
"Z  c #A54407",
"A  c #B7430B",
"S  c #A15908",
"D  c #B5461B",
"F  c #B55416",
"G  c #866606",
"H  c #826A02",
"J  c #95620A",
"K  c #847302",
"L  c #8C7102",
"P  c #8A7B03",
"I  c #997703",
"U  c #876813",
"Y  c #9A7F16",
"T  c #B1661A",
"R  c #B25223",
"E  c #837D2A",
"W  c #93762B",
"Q  c #AA6733",
"!  c #C74D0D",
"~  c #CF4E12",
"^  c #E65B18",
"/  c #DD6618",
"(  c #817A4C",
")  c #D06E47",
"_  c #6D9400",
"`  c #739503",
"'  c #759C01",
"]  c #7A9E02",
"[  c #74960B",
"{  c #7B9C0A",
"}  c #77A000",
"|  c #7BA301",
" . c #7EAA01",
".. c #7EA30A",
"X. c #7FA90A",
"o. c #988503",
"O. c #8E9109",
"+. c #83831E",
"@. c #A68805",
"#. c #B38A04",
"$. c #B1960D",
"%. c #B8960A",
"&. c #A98C1A",
"*. c #B68A1B",
"=. c #A59717",
"-. c #82A603",
";. c #83AD01",
":. c #89AE05",
">. c #82A40C",
",. c #85AD0B",
"<. c #8AAC0B",
"1. c #86B102",
"2. c #8AB404",
"3. c #8CB905",
"4. c #87B10B",
"5. c #8BB50A",
"6. c #8EB90C",
"7. c #93B804",
"8. c #99BD05",
"9. c #93B60B",
"0. c #96B90B",
"q. c #99BB0D",
"w. c #8AAA16",
"e. c #9FAD1B",
"r. c #8BB413",
"t. c #8CB615",
"y. c #93B413",
"u. c #93BA12",
"i. c #9ABC14",
"p. c #9ABD1A",
"a. c #A3A819",
"s. c #878D27",
"d. c #8C9627",
"f. c #939C29",
"g. c #868533",
"h. c #929034",
"j. c #949935",
"k. c #A98B25",
"l. c #B88629",
"z. c #AC9B27",
"x. c #AA8C39",
"c. c #BB893A",
"v. c #97AC2D",
"b. c #ABAA25",
"n. c #ACB527",
"m. c #B6B82D",
"M. c #A5A935",
"N. c #BEA632",
"B. c #A5BB38",
"V. c #BBB53B",
"C. c #C4910D",
"Z. c #EF9D0D",
"A. c #F19619",
"S. c #DEAD0E",
"D. c #C3A41A",
"F. c #DBAC16",
"G. c #DBB316",
"H. c #E4AB0B",
"J. c #E5B20B",
"K. c #F5BB06",
"L. c #FABB03",
"P. c #F4B50D",
"I. c #FBB60C",
"U. c #F5BA0B",
"Y. c #FABC0C",
"T. c #E7A712",
"R. c #E7B719",
"E. c #F5BC13",
"W. c #FBBA12",
"Q. c #F9B619",
"!. c #F3BA1A",
"~. c #C89A29",
"^. c #C58438",
"/. c #F39B30",
"(. c #D7AA26",
"). c #D3B92A",
"_. c #D3BD36",
"`. c #FBAC26",
"'. c #E9B926",
"]. c #F4B823",
"[. c #FEA235",
"{. c #E6B934",
"}. c #9EC207",
"|. c #9EC10C",
" X c #9FC112",
".X c #9EC21D",
"XX c #A7CE01",
"oX c #A2C60D",
"OX c #A5C90E",
"+X c #A8CD0E",
"@X c #ACD20D",
"#X c #A2C414",
"$X c #A9C614",
"%X c #A6CA12",
"&X c #AACE14",
"*X c #A3C41B",
"=X c #A6C919",
"-X c #ABCD1A",
";X c #B1CD1D",
":X c #ACD015",
">X c #ADD115",
",X c #ADD11A",
"<X c #B1D413",
"1X c #B1D41B",
"2X c #A8C627",
"3X c #A3C923",
"4X c #AECC23",
"5X c #B1C626",
"6X c #B0CF24",
"7X c #B9CF2A",
"8X c #B4D425",
"9X c #B1CC35",
"0X c #B4C73B",
"qX c #BBD035",
"wX c #EAC01C",
"eX c #F5C117",
"rX c #CCC42B",
"tX c #D8C52E",
"yX c #CAC838",
"uX c #E6C338",
"iX c #8E9644",
"pX c #95934A",
"aX c #B39942",
"sX c #9FA546",
"dX c #A7B145",
"fX c #ADB057",
"gX c #FC8E44",
"hX c #CEB449",
"jX c #D9B856",
"kX c #FBA946",
"lX c #E4BA46",
"zX c #D2BD69",
"xX c #B8C844",
"cX c #B4D447",
"vX c #CDC24E",
"bX c #C7D04A",
"nX c #D3CB5E",
"mX c #E2C755",
"MX c #F9D062",
/* pixels */
"1.1.1.1.1.1.1.1.1.3.1.1.1. .-..X9.9.9.0.0.q.q.q.q.q.q.q.q.q.q.q.}.u.>.] 4.5.:.r.5.5.1.1.1.1.5.5.2.2.",
"5.5.5.5.5.5.5.5.1.3.5.5.5.| ' <.9.0.0.0.q.q.q.q. X X X X X X X X}.i.>.] 4.5.;.,.3.5.5.1.1.5.3.5.2.2.",
"5.5.5.1.1.1.1.1.1.3.5.5.3.' ' <.oXoX%X%X%X%X%X%X%X%X%X%X%X%X%X%XoXi.>.] :.1. .X.5.5.1.1.1.1.3.3.2.2.",
"1.1.1.;.;.;.;.;.1.3.1.;.1. .;.3X:X:X:X:X:X:X:X:X&X&X&X&X&X&X&X&X&X#X>.] :.1. .X.1.1.1.1.1.2.1.1.2.2.",
"1.1.1.;.;.;.;.;.1.2.;.;.1. .:.2X+X+X+X+X+X+X+X+X:X:X:X:X:X:X:X:X:X=X<.| :.2.;.,.1.;.;.;.;.;.;.1.2.2.",
"5.5.5.1.2.1.1.1. .1.1.1.3.| | i.&X&X&X&X&X&X&X&X&X&X&X&X&X&X&X&X<X=X<.| 1.2.;.4.1.;.;.;.;.;.;.1.2.2.",
"5.5.5.5.5.5.5.5.1.1.1.1.4.| ] u.,X,X,X:X:X:X&X&X&X&X&X&X&X&X&X&X@X#X,.] 2.2.1.5.1.1.1.;.;.1.2.1.2.2.",
"2.1.1.1.1.1.1.1.6.6.1.;.;.| -.3X&X&X&X&X%X%X%X%X4X4X4X&X-X-X-X&X@X#X-.>.2.3.1.u.3.5.1.1.1.1.5.3.2.2.",
"6.5.1.;.;.1.1.5.2.3.3.| ' ;.|.:X,X,X&X&X%XaX< p 7 u p p a q x.-X&X=XzXjXlXlXlXvX3.1.;.1.5.0.5.1.4.4.",
"1.1.;. . .1.2.1.3.3.,.' ] 9.#X+X,X:X&X&X-X) 4 h d d h h d 2 l.;X-X6XjX{.!.E.Q._.5.1.;.1.1.5.5.5.5.5.",
"1.1.1.1.2.5.5.5.r.,.| ] <.*X&X+X:X&X&Xa.R v d f j f k k j g y F F F ~ ! Z.L.I._.1.1.1.;. .;.;.1.2.2.",
"2.5.3.3.3.3.3.5.,...] >.i.-X:X+X&X&X&X=.1 2 2 3 g d g d g 2 2 2 2 3 2 r A.E.!._.;.2.5.2.;. . .;.2.2.",
";.1.1.1.1.;.;. .' ] >.y.*X-X&X<X&X&X&X=.9 9 9 t t ! ~ ~ ~ 9 A ~ R T Z m *.D.*.M. .1.6.0.5.1.1.3.3.3.",
"| | | | | | ] ' | -.y.*X-X&X&X<X&X&X&Xe.G U J B B `.`.`./.B C.kXmXOXW o H + o +.' }  .,.,.,.,.,.-.-.",
"' ' ] ] | | | | 0.q.#X,X1X$X$X;X&X&X-Xn.P + O P I J.I.W.F.+ $.'.mX7Xk.K * = # s.| ' ' ' | | | | ` ' ",
"{ { ..>.w.w.w.w.,X&X&X1X1X$X$X-X:X,X> *.'.o.* D.!.Y.K.K.G.+ #.eXQ.].].R.P & . d.p.w...' ' ' ` ' [ [ ",
"u.9.8.oXOXoX#X=X&X&X&X&X&X&X&X&X%X-X; @.wXo.+ D.R.E.K.K.H.L %.J.P.W.P.E.@.K O d.%X#X7.-.;.y.<.` ] -.",
"i.q.|.&X&X&X&X-X&X&X&X&X&X&X&X&X,X4XX @.wX@.o I I J.Y.L.K.F.%.L C.!.E.P.R.D.# j.&X-X X7.q.*X.X<.<.y.",
"i.q.|.&X:X&X&X,X&X&X&X&X&X&X&X&X,X4XX @.wX@.O H G R.U.L.L.E.%.o %.!.U.W.!.).  d.-X,X%XoX%X1X-X0.9.0.",
"y.0.|.&X:X&X&X-X&X&X&X&X&X&X&X&X&X=Xf.b.=.$.$.%.C.R.Y.K.J.#.o.O o.$.#.#.$.z.M.B.-X,X&X%X&X:XoX7.9.9.",
"y.0.|.&X:X&X%X-X&X&X&X&X&X&X&X&X%XoX|.w.- %.eXK.Y.K.Y.Y.F.+ . O O O O + # g.&X&X&X&X&X&X&X:XoX8.q.q.",
"i.q.#X:X1X&X%X-X&X&X&X&X&X&X&X&X&X%X%XB.pX(.U.L.Y.K.U.I.H.@.@.o.o.o.* @ h.fX&X&X&X&X:X,X1X,X&X%Xq.q.",
"i.q.#X:X:X%X#X#X&X&X&X&X&X&X&X&X:X-X-X:X&XMX!.Y.U.W.W.W.W.!.].].wXtXO.; 0X&X&X&X:X&X&X,X-X-X*X*X0.0.",
"u.0.|.&X&XoX|.|.&X&X&X&X&X&X4X9X9X9X9X0XxXjX(.T.T.T.S.S.H.H.Z.A.T.(.k.g.9X&X&X&X:X&X%X%X#Xi.y.y.i.i.",
"q.q.#X%X#X8.8.oXoXoX$X&X&X,XE > : : : : : = J Z 9 S K K H L Z r M L n.-X-X&X&X&XOX:X&X|.|.-X%X0.q.q.",
"0.q.#X&X%XoXoX&XoXOX$X&X,X6X: @ & $ & O $ % H 0 8 Z G + O @ m e m C 5X&X&X&X&X&X&X1X,X%X#X,X-Xq.q.q.",
"0.0.#X-X-X&X&X1XOXOX%X&XB.j.= & & $ $ $ $ $ + N M t 0 B + @ N M 0 w m.&X&X:X:X&XOX:X,X&X&X,X-Xq.q.q.",
"0.0. X-X,X-X&X1X%X%X&X&Xj.X @ & O O . $ & O O H S 8 e S G G G J t q n.&X&X&X&X&XoX&X&X&X&X-X#X0.q.q.",
"q.q.|.-X-X&X&X&X&X&XqXbXN.&.# & & & & O O O & O B 8 6 t M m m 0 r u n.&X&X&XxX0XOX&X&X&X-X-X#Xq.q.q.",
"i.q.q.%X-X&X%X%X:X&XyX'.E.'.L O & O @ O * + * @ C e 3 g g 3 g 3 d 7 b.$X&X6X- h.&X&X&X,X,X,X&X#Xq.q.",
"i.q.q.%X,X&X%X%X,X:XtXU.L.P.#.Y h.j.iXW B H G N y 6 d f l c c g x ! ~.V.0XB.; f.:X&X&X,X,X,X-X=Xq.i.",
"q.0.8.%X,X,X&X&X,X:XrXeXW.Q.].lX4XoX|.=.e n C t 2 d f f c [.^ l / kXA 8 V ; . d.:XOXOX&X&X&X%X=Xi.i.",
"i.-.:.=X-X0.8.8X,X:XyX).!.].{.vX2X*XoXk.6 Z D 6 g j j f x [.^ g ^ gXy e C = @ d.XX@X<X@X+X&X|.7.q.q.",
"w.] ] y.y.<.<.p.#X&X8X7XuXlXyXxXiXsX%X*.h 6 6 g j f k f g v z d z c l 5 M O . d.+X:X:X%X-X-X=Xq.i.i.",
"{ [ ` { { { { w.5.i.-X,XmXzX;X4X, sX&Xk.h f f j f f f k k f j j j f d 6 M O = d.,X=X X0.i.p.y.<.y.y.",
"` [ { ` ` { ..] | <.i.=XbXnXdXM.: E dXQ 4 d f j j j f j j f f f d d g 5 M O . d.3X.X<.-.-.-.' _ { { ",
"] -.,.-.;.:.;.| ' ] -.9.#X6X: ; # o G 9 3 d k j f f f j j f d 4 4 4 4 < V @ - s.y.,.] ' ] ] ' ` ' ' ",
";.1.5.2.2.2.2.1.| ' ' -.B.dX: ; # G M r d f j j j j f f f d b ^.^.^.c.c.aXM.M.v.| ' ' ..,.,.,.r.....",
"5.1.;.;.;.1.2.3.4.X.} | iXX = ; U n 5 g f f f f f j j k f h l.&X:X&X+X&X&X#X9.-.} }  .4.4.:.1.6.1.1.",
"t.,.| |  .| ,.u.u.4.X.| j.; +.g.E Q 2 j j j f f h b D D D R z.&X-X&X+X+X%Xq.-.`  .;.5.6.1.} '  .3.3.",
"1.5.5.1.;.;.1.5.3.0.1.;.iX, v.cX9XhX1 h d g d 4 1 m.5X5X5X5X-X&X1X%X-X8X.X' _  .3.1.;. . .;.:.1.2.2.",
"1.5.5.5.1.1.5.5.2.3.5.1.iX( >.3X&XV.i p 7 u 7 p s ,X,X&X&X&X&X&X:X%X=X3Xu.} } 5.3.2.1.1.1.1.4.3.2.2.",
"3.5.1.5.5.5.5.2.;.5.5.6.6.| } u.%X%X-X-X-X6X;X,X&X&X,X,X,X,X&X&X:X&X#X9.-. .:.6.2.2.5.5.5.1.1.1.2.2.",
"3.1.1.1.3.3.1.;. .1.1.6.u. .' 4.&X&X&X&X&X&X&X&X|.oX&X,X,X,X,X&X&X,X#X;.' -.3.3.;.1.2.5.1.;.;.;.2.2.",
"1.;.;.;.5.5.1.;.;.1.;.1.6. .} 6.:X:X:X:X&X&XOXOX8.|.oX&X,X,X,X,XOX8X=X;.' :.3. . .1.2.5.1.;.;.;.2.2.",
"1.;.;.;.;.1.1.;.1.1. .;.6.;.| r.&X:X:X:X&X&XOXoX8.|.oX%X&X,X,X,XOX8X=X:.| :.1.| ;.2.5.5.;.;.:.1.2.2.",
"1.1.1.;.;.;.1.5.3.2.;.;.6.-.| 4.%X&X&X:X:X&X&X%X%X%X&X&X&X,X,X,X&X1X=X:. .,.1. .2.2.5.1.;.;.4.6.2.2.",
"3.5.1.;. .;.5.0.3.3.;.1.u.-.' :.oXOX&X:X,X,X:X&X1X,X,X,X&X&X,X,X:X,X X:.-.,.3.1.2.2.2.;. . .1.u.2.2.",
"2.2.2.2.2.2.2.2.1.2.2.3.6. .' r.#X#X#X#X#X#X#X#X=X-X-X-X-X=X%X#Xq.q.i.4.'  .5.5.2.2.2.2.2.2.2.2.2.2.",
"2.2.2.2.2.2.2.2.1.2.2.3.6. .' r.q.q.q.q.q.q.q.q.q.q.q.q.q.8.0.0.q.q.i.5.'  .5.5.2.2.2.2.2.2.2.2.2.2."
};
